<svg xmlns="http://www.w3.org/2000/svg" viewBox="0 0 32 32"><path d="M257.622 942.35v-682.6h1365.2v1365.2h-1365.2z" style="fill:#f4eded" transform="matrix(.02344 0 0 .02344 -6.039 -6.089)"/><path d="M257.622 942.35v-682.6h1365.2v1365.2h-1365.2zm719.088 394.866c2.296-3.331 5.252-7.175 6.57-8.542l2.395-2.485 7.1 4.062 7.099 4.062h9.176l3.401-3.667c1.871-2.016 4.94-7.093 6.82-11.282l3.416-7.617 3.276-.822 3.275-.822 5.66 2.888 5.662 2.888 4.259-.799 4.258-.799 3.426-3.65c1.884-2.007 5.311-7.426 7.616-12.043l4.19-8.393 2.022-.776 2.022-.776 5.39 2.43 5.39 2.431 4.622-.13 4.623-.132 2.725-2.462c1.499-1.355 4.232-5.433 6.073-9.064 1.84-3.63 4.588-8.28 6.106-10.332l2.758-3.732h2.253c1.24 0 4.407.9 7.04 2 2.632 1.1 6.998 2 9.702 2h4.917l4.47-3.41 4.472-3.41 2.578-5.054c1.418-2.78 3.5-9.031 4.628-13.893l2.05-8.84 1.996-25.553 1.996-25.554-2.112-4.45-2.112-4.451-4.352-2.69-4.35-2.689-5.935-.813-5.935-.814-13.903 3.588-13.903 3.587-8.695 4.566c-4.782 2.51-11.681 7.176-15.332 10.366-3.65 3.19-9.078 7.045-12.062 8.565-7.507 3.824-17.848 12.202-30.704 24.874-5.996 5.91-15.488 14.945-21.093 20.078-5.605 5.132-13.602 13.532-17.77 18.664-4.17 5.133-11.81 13.532-16.98 18.665-13.187 13.091-21.767 24.004-26.207 33.33l-3.807 8-.001 5.413-.001 5.413 4.176 4.271 4.177 4.272 3.49.764c1.918.42 4.089.92 4.822 1.11.733.19 3.054-.245 5.158-.968l3.824-1.315zm-49.154-201.569v-1.981l-3-.426-2.999-.426v1.87c0 2.565 1.473 3.816 3.935 3.342l2.064-.397z" style="fill:#f6abd1" transform="matrix(.02344 0 0 .02344 -6.039 -6.089)"/><path d="M257.622 942.35v-682.6h1365.2v1365.2h-1365.2zm524.353 572.758c4.989-.965 9.706-2.39 10.483-3.168l1.412-1.412-.8-1.296c-.44-.712-3.458-1.694-6.704-2.18l-5.904-.886-5.01 2.093c-2.755 1.152-5.77 2.724-6.699 3.496l-1.69 1.402.73 1.902.73 1.902 2.191-.049c1.205-.027 6.272-.838 11.261-1.804zm44.762-12.045c.817-.505 2.769-1.165 4.338-1.467 5.364-1.033 3.991-1.688-3.73-1.78l-7.722-.093-3.204 2.1-3.203 2.098 1.644 1.017 1.645 1.016 4.373-.986c2.406-.543 5.042-1.4 5.86-1.905zm47.491-14.02c5.866-2.106 15.465-5.479 21.331-7.496 23.48-8.073 32.719-11.707 34.153-13.435l1.504-1.812-1.163-.091c-.64-.05-3.563-.251-6.496-.447-2.933-.196-10.18-.82-16.102-1.385l-10.77-1.029-8.073 7.475c-4.44 4.111-8.94 7.475-9.997 7.475-1.057 0-3.276 1.441-4.93 3.202l-3.01 3.203-5.556 1.448c-3.056.797-6.456 2.055-7.556 2.797l-2 1.349 2 1.313c2.963 1.945 4.949 1.639 16.665-2.567zm83.614-31.374c2.407-1.08 12.177-4.382 21.71-7.338l17.33-5.373 7-4.021c3.85-2.212 7-4.61 7-5.328 0-1.72-.463-1.675-8.487.836-12.736 3.986-16.17 4.95-18.844 5.29-2.71.344-18.425 7.048-24.87 10.61-1.946 1.076-4.46 1.956-5.587 1.956-2.465 0-4.013 2.155-2.873 4 1.11 1.796 2.46 1.684 7.62-.632zm89.253-34.753c6.847-2.66 15.148-6.511 18.448-8.56 3.3-2.05 7.731-4.131 9.848-4.626 2.116-.495 5.84-2.419 8.272-4.275 2.433-1.855 7.257-4.226 10.72-5.269 3.463-1.042 7.24-2.713 8.393-3.714 1.153-1 5.876-3.493 10.495-5.537l8.4-3.718 1.22-2.28c.67-1.253.927-2.57.57-2.928-.736-.735-12.204 2.536-15.256 4.35-1.1.655-5.811 3.124-10.47 5.487-4.659 2.363-8.773 5.083-9.142 6.045-.369.962-1.205 1.749-1.858 1.749-.652 0-5.538 2.048-10.856 4.55-18.979 8.934-22.023 10.18-29.795 12.188-4.33 1.119-9.464 2.73-11.41 3.582l-3.537 1.548-2.325 3.937-2.326 3.937 4.08-.816c2.245-.449 9.683-2.992 16.53-5.65zm-102.207-5.2c2.933-.258 8.837-1.795 13.12-3.415 4.283-1.62 9.383-3.144 11.332-3.388 7.705-.963 12.03-2.468 23.956-8.34 11.072-5.452 15.455-8.266 12.873-8.266-.479 0-6.663 1.785-13.744 3.967-7.08 2.182-21.273 5.899-31.539 8.259l-18.664 4.29-12 .074-11.998.074-5.307-2.666-5.306-2.666-3.61-5.333-3.61-5.333-1.564-9.165-1.565-9.165.586-12.833.585-12.833 6.339-13.999c17.38-38.385 47.932-78.153 98.986-128.85l24.364-24.194 13.711-10.572c33.719-25.998 60.99-39.795 83.33-42.159l6.96-.736 8.2 1.32 8.2 1.322 5.506 2.772c3.027 1.524 8.066 4.848 11.195 7.387l5.691 4.615 5.575 8.209c3.066 4.515 7.264 12.559 9.328 17.875l3.753 9.666 2.522 15.012c1.387 8.257 2.905 19.212 3.373 24.345l.852 9.332-2.028 16.665c-1.116 9.166-2.39 18.465-2.831 20.665l-.804 4 1.372-1.973c.755-1.085 1.77-4.385 2.255-7.333.486-2.948 1.454-6.068 2.152-6.934 2.25-2.792 2.69-15.254 1.305-37.089l-1.352-21.331-2.845-10.666c-4.238-15.888-6.427-21.892-10.936-29.997-2.244-4.033-5.495-10.032-7.224-13.332-6.193-11.817-14.816-24.6-18.398-27.275l-3.645-2.722-6.235.19c-3.43.104-10.387-.367-15.462-1.047l-9.226-1.237-7.439 1.536c-4.09.845-10.138 2.89-13.438 4.545-3.3 1.655-12.298 5.171-19.998 7.814-7.699 2.642-16.961 5.883-20.582 7.201l-6.584 2.397-3.495 8.632-3.495 8.632-8.586 6.362c-4.722 3.498-14.285 11.99-21.251 18.871-6.966 6.88-20.153 19.616-29.304 28.302-21.613 20.513-57.355 61.06-57.355 65.067 0 .902-1.2 2.726-2.666 4.053-1.467 1.327-2.666 3.19-2.666 4.14 0 .951-3.927 6.408-8.726 12.126l-8.725 10.398-5.273 9.997c-2.9 5.498-5.265 10.598-5.254 11.332.011.735-2.001 5.535-4.472 10.668-5.45 11.321-10.213 25.784-10.213 31.009 0 2.115-.957 6.655-2.127 10.09l-2.128 6.244 2.867 9.44 2.868 9.44 1.934-.743 1.934-.742 3.152 4.992 3.151 4.992 5.663 3.924 5.662 3.924 6.177.942c5.533.844 17.663.557 32.841-.776zm196.885-41.053c11.695-5.377 33.592-20.886 29.625-20.983-4.967-.122-30.903 10.493-38.04 15.568l-6.176 4.392-.668 2.553-.667 2.552 4.415-.41c2.429-.226 7.609-1.878 11.511-3.672zm-84.23-2.354c0-.734-.264-1.333-.587-1.333-.324 0-.959.6-1.412 1.333l-.824 1.333h1.412c.776 0 1.412-.6 1.412-1.333zm-109.454-3.91c7.311-1.418 18.882-4.48 25.711-6.803 28.687-9.762 61.624-22.066 79.077-29.54 32.595-13.96 81.395-40.326 94.966-51.31 6.997-5.662 16.989-18.502 20.4-26.212l2.566-5.803.861-9.266.862-9.266-1.662-9.937c-.914-5.466-3.422-14.824-5.575-20.797l-3.913-10.86-5.297-7.138c-2.913-3.927-7.437-8.753-10.054-10.726l-4.757-3.586-7.067-.883-7.067-.883-5.8 1.348c-22.619 5.256-34.61 10.573-45.915 20.358-3.26 2.821-9.667 7.319-14.238 9.994-8.903 5.211-29.593 22.116-30.746 25.122-.384 1-5.092 5.593-10.462 10.206-5.37 4.613-14.714 13.829-20.765 20.478-6.05 6.65-16.134 17.49-22.406 24.09-6.273 6.599-14.125 15.298-17.448 19.331l-6.042 7.333-6.03 11.999c-3.317 6.599-8.636 16.205-11.821 21.347-5.103 8.237-12.577 25.223-12.577 28.583 0 .664.943 2.15 2.095 3.302l2.095 2.095h3.857c2.122 0 9.84-1.16 17.152-2.577zm-9.534-14.862-2.333-1.359V1347.85l3.452-4.102 3.451-4.102 3.548.01 3.548.01 4 2.65c2.2 1.456 5.049 2.652 6.332 2.657l2.333.01-.042 1.666c-.178 6.996-16.983 13.148-24.289 8.893zm40.33-17.178v-2.62l2.716-1.453 2.717-1.454 2.73.866 2.73.867-3.012 3.207-3.013 3.207h-4.868zm38.218-7.602c-1.59-1.59-.923-4.982 2.375-12.063l3.237-6.953 3.261-.82 3.262-.818 5.66 2.888 5.662 2.888 4.259-.799 4.258-.799 3.42-3.65c1.881-2.007 4.67-6.142 6.196-9.19 1.527-3.046 4.286-6.727 6.131-8.178l3.355-2.64 9.372 2.057 9.371 2.056 3.443-3.21c1.893-1.765 5.117-6.509 7.163-10.542 2.046-4.033 4.962-8.454 6.48-9.824l2.759-2.492 3.719.737c9.211 1.826 16.384 4.132 16.384 5.268 0 1.553-11.979 12.489-18.762 17.128l-5.095 3.485-8.1 1.797-8.102 1.797-1.904 2.906c-1.047 1.598-6.18 5.748-11.406 9.223l-9.503 6.317-8.227 2.482c-4.524 1.364-9.146 3.01-10.27 3.657-1.124.647-4.124 1.626-6.666 2.175-2.542.55-6.848 2.125-9.569 3.502-4.984 2.524-10.52 3.258-12.163 1.615zm129.81-75.273c-.047-2.284 3.544-6.019 4.687-4.875.367.367-.527 2.102-1.988 3.856l-2.655 3.188zm-55.277 105.96c3.614-1.21 9.57-4.163 13.236-6.561 3.667-2.399 11.65-6.91 17.74-10.026l11.073-5.666 1.306-2.44 1.306-2.438-1.047.01c-1.509.01-48.531 24.698-51.709 27.148l-2.666 2.056 2.095.06c1.153.032 5.052-.931 8.666-2.141zm96.144-15.161c3.283-2.216 8.286-5.21 11.117-6.655 4.963-2.532 24.667-19.288 37.499-31.888 3.411-3.35 10.005-9.69 14.652-14.09 15.746-14.906 25.818-28.664 20.984-28.664-1.77 0-9.574 8.12-15.175 15.791l-4 5.478-5.568 3.364c-3.063 1.85-6.962 5.08-8.666 7.18l-3.097 3.819-9.587 5.528-9.587 5.528-4.772 5.824c-2.626 3.204-7.112 7.446-9.971 9.427-2.859 1.981-6.732 5.816-8.608 8.523-1.875 2.706-5.219 5.989-7.43 7.295-2.211 1.306-4.646 3.543-5.41 4.971l-1.39 2.597h1.52c.836 0 4.206-1.813 7.49-4.028zm-335.55-47.101c0-.258-.674-2.403-1.498-4.768l-1.5-4.3-1.216 1.218-1.218 1.217 1.35 3.55c.743 1.953 1.965 3.55 2.716 3.55.752 0 1.366-.21 1.366-.467zm23.21-33.633 2.592-7.896-.194-51.328-.193-51.328-1.682-17.998-1.68-17.999.026-28.664.026-28.663 1.554-10c.856-5.499 2.218-13.088 3.029-16.864l1.473-6.866 6.918-10.447 6.917-10.446 6.98-5.629 6.98-5.629 5.652-1.522c3.109-.837 8.967-3.166 13.018-5.175 4.052-2.01 11.266-4.72 16.032-6.023s11.666-3.89 15.332-5.748c6.681-3.387 19.877-8.421 37.33-14.24 11.75-3.919 50.033-19.591 69.326-28.382 8.066-3.675 16.015-7.098 17.665-7.606 4.139-1.274 3.755-2.774-1.239-4.842l-4.238-1.756-17.669-.056-17.669-.057-3.176 2.984c-1.747 1.64-4.268 2.984-5.603 2.984-1.336 0-3.832 1.35-5.548 3-6.078 5.843-8.54 7.665-10.355 7.665-1.01 0-2.583.9-3.496 2l-1.66 2h-6.4l-10.678 6.333c-13.738 8.148-24.192 13.614-26.091 13.643-.825.012-7.326 2.726-14.447 6.031-7.121 3.305-15.745 6.696-19.165 7.535-3.42.84-7.717 2.543-9.55 3.786-6.311 4.278-18.982 9.327-26.482 10.55-12.716 2.076-19.57 5.776-24.475 13.214l-2.354 3.568-.009 6.104-.009 6.104-4.23 6.562c-2.328 3.608-5.324 7.795-6.658 9.304l-2.426 2.743-.65 6.422c-.357 3.532-1.351 7.267-2.209 8.3l-1.559 1.879-3.094-2.907c-1.702-1.599-3.786-5.069-4.632-7.71-.845-2.642-2.962-7.971-4.705-11.843-1.742-3.871-3.17-7.77-3.174-8.666-.004-.894-.61-3.792-1.345-6.439l-1.336-4.812-7.65-4.854c-4.207-2.67-9.568-5.215-11.913-5.655l-4.264-.8-10.978 3.656-10.978 3.656-5.036 4.81c-8.436 8.06-14.437 12.488-21.116 15.582-3.506 1.625-6.741 3.546-7.188 4.269-.447.723-4.154 1.732-8.24 2.242l-7.426.928-7.188 7.189c-9.884 9.884-11.871 14.46-9.438 21.737l1.05 3.14-1.657 5.914-1.656 5.916 1.495 3.28 1.494 3.28 4.36 2.66c2.398 1.461 5.181 2.66 6.184 2.663h1.823l-.88-9.666-.88-9.666 3.056-5.958 3.057-5.958 12.665-7.242a3640.923 3640.923 0 0 0 27.997-16.23c8.433-4.944 18.69-10.553 22.794-12.465l7.46-3.475H820.736l4.23 2.898c2.326 1.594 6.563 6.116 9.415 10.048l5.185 7.149 4.241 16.283c2.333 8.956 4.966 20.633 5.85 25.949l1.607 9.666h1.15c.633 0 1.15-1.427 1.15-3.17v-3.17l1.916-1.59 1.917-1.59 3.832 7.76c2.107 4.267 4.512 10.459 5.344 13.759l1.512 5.999.887 28.664c1.02 32.958 1.224 37.037 2.543 50.662 1.2 12.392 1.017 21.44-.725 35.868-1.411 11.684-2.363 14.53-5.82 17.4l-2.073 1.72.032 6.169c.041 7.766 2.178 17.24 4.793 21.25l2.01 3.083 1.559-.52 1.558-.519zm-37.16-21.3c-.496-3.97-1.46-7.563-2.141-7.984l-1.24-.767v13.665l1.556 2.908 1.557 2.909.585-1.756c.322-.965.18-5.004-.317-8.974zm-2.05-31.591c-.001-6.05-.863-22.998-1.915-37.663-1.052-14.665-2.274-33.863-2.717-42.663-.442-8.799-2.065-25.297-3.606-36.663l-2.802-20.664-2.528-6.876-2.528-6.876-2.138-.82-2.138-.82-3.145 2.06c-3.84 2.516-3.928 3.936-.479 7.64l2.667 2.861.047 4.082c.026 2.245.905 5.581 1.952 7.414 1.048 1.834 1.927 5.21 1.953 7.503l.047 4.17-2 1.66c-2.254 1.87-2.664 6.098-.707 7.307.71.439 2.755 5.43 4.544 11.093l3.252 10.295 2.067 14.87 2.067 14.869-1.505 19.132-1.505 19.132 3.08 12.645c3.326 13.659 4.75 17.31 6.753 17.31h1.286zm-32.195-34.783c2.914-3.102 6.172-11.561 4.44-11.53-.499.01-2.274 2.128-3.946 4.708l-3.039 4.69-3.96.793c-5.619 1.124-5.098 4.458.695 4.458h2.879zm-29.13-8.451c0-3.344 1.52-15.758 3.38-27.585l3.38-21.505 4.515-9.586 4.516-9.586 5.383-2.746c2.96-1.51 6.307-2.747 7.436-2.747 3.627 0 2.198-2.09-2.995-4.38l-5.049-2.228-5.284 1.418-5.283 1.417-2.38 2.887c-1.31 1.587-3.811 5.62-5.559 8.96l-3.177 6.075-1.464 10.59c-4.475 32.375-5.164 37.993-4.854 39.548l1.397 7.04c.58 2.933 1.607 6.4 2.28 7.703l1.225 2.37 1.266-.782 1.267-.783zm130.164-10.094c-.456-3.85-1.19-11.5-1.63-16.999l-.799-9.999 2.066-22.158 2.065-22.158 2.52-6.631c1.386-3.647 4.465-9.46 6.843-12.916l4.325-6.285 4.4-2.098 4.4-2.099 4.68.878c5.734 1.076 10.982 5.048 13.756 10.411l2.086 4.035 1.52-1.52 1.52-1.52-1.634-2.614c-.898-1.439-1.633-3.41-1.633-4.382 0-1.652-6.85-7.602-8.751-7.602-.473 0-3.898-1.525-7.61-3.39l-6.75-3.39-3.826.84-3.827.841-7.906 7.32-7.905 7.319-2.63-.835-2.629-.834-1.406 5.064-1.406 5.063v18.665c.002 18.21 3.216 66.805 4.735 71.593l.762 2.4h5.492zm28.57-22.772c1.389-3.057 2.538-6.89 2.554-8.518l.03-2.96-4.853 3.293-4.852 3.293h-2.925c-1.609 0-3.301.376-3.76.836-1.071 1.07 2.669 10.098 4.704 11.356l1.543.954 2.518-1.348 2.518-1.348zm27.678-33.661.43-7.894-2.678-5.333c-1.472-2.933-3.03-6.469-3.461-7.857-1.812-5.837-2.18-.093-.844 13.185 1.513 15.033 2.099 17.119 4.578 16.301l1.544-.509zm-316.495-58.651c1.152-1.153 2.095-2.665 2.095-3.362 0-.696 1.5-1.95 3.333-2.785l3.333-1.519V1033.01h-1.666c-1.597 0-10.153 8.193-12.182 11.664l-.974 1.666h1.983c1.09 0 2.926-.942 4.078-2.095zm38.192-40.934c-.165-1.594-1.994-1.286-2.567.433l-.533 1.6 1.6-.533c.88-.294 1.555-.969 1.5-1.5zm387.327-24.45c7.98-3.787 4.375-6.179-4.6-3.05l-4.198 1.463v3.739h2.132c1.172 0 4.172-.968 6.666-2.152zm-95.798-139.168c.188 0 .342-.6.342-1.333v-1.333h-3.066c-2.975 0-6.266 2.192-6.266 4.173v.974l4.324-1.24c2.378-.683 4.478-1.24 4.666-1.24zm215.288.835 2.3-1.748-1.633-2.097c-1.623-2.084-12.593-6.322-16.364-6.322-1.084 0-3.136-.727-4.559-1.616l-2.587-1.616-.98.98-.98.98 2.919 2.045 2.919 2.044v2.428c0 4.106 4.28 6.321 12.665 6.557l4 .112zm-84.111-11.917.847-1.247 6.086-.168 6.085-.168 1.666-1.667c.917-.916 3.011-1.666 4.654-1.666 1.644 0 3.317-.532 3.718-1.182l.73-1.181-2.984-.875c-1.642-.48-8.684-1.21-15.65-1.622l-12.666-.748-3.901 1.527-3.901 1.527 4.211 2.944c2.317 1.618 4.222 3.564 4.235 4.324l.023 1.38 3 .035c1.65.019 3.38-.527 3.847-1.213z" style="fill:#f6b5ad" transform="matrix(.02344 0 0 .02344 -6.039 -6.089)"/><path d="M257.622 942.35v-682.6h1365.2v1365.2h-1365.2zm471.65 585.305c12.265-2.185 27.101-5.497 32.967-7.36 5.866-1.863 14.565-4.24 19.332-5.282 4.766-1.042 15.265-3.327 23.33-5.078 28.414-6.166 47.122-11.935 78.66-24.257 8.066-3.15 19.684-6.989 25.818-8.529s16.033-4.96 21.998-7.602c5.964-2.642 16.232-6.613 22.816-8.824 6.584-2.211 14.726-5.417 18.093-7.123 3.368-1.706 9.98-4.075 14.693-5.264 4.714-1.189 14.27-4.802 21.236-8.029 6.966-3.227 21.365-9.232 31.997-13.344l19.331-7.476 30.511-15.294c16.78-8.412 32.08-16.4 33.997-17.752 1.917-1.351 7.923-4.313 13.347-6.58 8.45-3.534 24.983-13.338 39.467-23.404 2.2-1.528 9.4-6.338 15.999-10.688 12.129-7.994 19.693-14.396 49.666-42.033l16.534-15.245 8.39-10.487 8.391-10.487 8.171-16.292c4.494-8.96 8.171-17.122 8.171-18.137v-1.845l-2.78 2.516c-1.529 1.383-4.932 5.526-7.562 9.205-7.147 9.997-10.946 13.842-18.478 18.697l-6.822 4.399-.836 3.332-.837 3.333-6.34 5.19c-7.998 6.548-13.057 9.736-15.451 9.736-1.03 0-4.8 2.316-8.38 5.147-3.578 2.831-9.289 6.367-12.689 7.858l-6.183 2.71-1.586 4.808-1.587 4.807h-8.644l-1.908 4.333-1.907 4.333-5.332 2.55a1076.947 1076.947 0 0 1-7.333 3.478l-2 .928-.812 4.994-.813 4.993-1.854 1.174c-1.02.646-2.499 1.183-3.288 1.194-.789.011-2.85 1.527-4.58 3.369l-3.144 3.348-5.17 1.392c-2.843.765-5.964 1.697-6.935 2.07l-1.766.677-2.953-4.148-2.953-4.147 1.557-3.758 1.557-3.758 6.911-5.959c3.801-3.277 8.259-6.677 9.906-7.555 2.731-1.456 13.193-11.578 21.761-21.053 1.883-2.082 6.552-6.578 10.374-9.99l6.95-6.203 1.625-6.462 1.624-6.462-.03-19.998c-.018-11-.761-28.566-1.654-39.037l-1.622-19.038-2.02-3.907c-1.111-2.148-2.964-7.98-4.118-12.958l-2.098-9.052-6.56-11.643c-3.61-6.403-6.562-12.344-6.562-13.202 0-.859-1.874-5.519-4.163-10.356-2.29-4.837-4.992-11.573-6.004-14.968-2.185-7.328-3.293-8.377-11.164-10.568l-6-1.67-7.364.23-7.364.23-9.868-3.357c-5.427-1.846-11.712-3.382-13.967-3.415-2.254-.032-6.499-.997-9.432-2.143l-5.333-2.086-9.999-.462-9.999-.461-4.302 1.365-4.303 1.366-4.03-2.38c-2.216-1.31-4.03-2.817-4.03-3.35 0-2.038 15.032-18.575 18.526-20.382 2.016-1.043 4.383-2.76 5.259-3.815l1.592-1.918-.731-1.906c-.403-1.049-2.596-3.008-4.874-4.354l-4.143-2.447-16.307.906-16.307.906-8.827-.904-8.827-.904-1.315-4.764-1.315-4.763 1.919-2.93 1.92-2.928 11.715-.973 11.716-.973 4.643-3.15 4.642-3.151h8.378l5.834-3.184c3.208-1.752 8.233-3.939 11.166-4.86 9.137-2.87 9.561-6.29 2.016-16.26l-5.317-7.024.765-2.668c1.833-6.383 11.175-10.8 17.891-8.459l3.595 1.253 6.524-3.466 6.523-3.465.906-2.265c.499-1.245.949-3.8 1-5.679l.094-3.415 2.556-2.742c1.405-1.509 4.04-5.672 5.855-9.25 1.815-3.58 4.542-7.631 6.06-9.003 1.518-1.372 3.44-4.553 4.27-7.07l1.51-4.576-.753-3.005-.754-3.004-4.368-1.924-4.367-1.924-.754-4.75c-.415-2.613-1.917-6.319-3.338-8.235l-2.584-3.485-5.79-1.482-5.79-1.48-2.606.827-2.607.827-1.85-1.536-1.85-1.536-2.689 1.439-2.688 1.438-13.062-1.558-13.063-1.558-28.663.029c-15.766.016-31.73.366-35.477.777l-6.813.747-6.83 4.201-6.828 4.202-1.524 5.566c-2.625 9.583-5.527 16.95-7.053 17.905-1.572.983-2.071 1.14-7.944 2.486l-3.808.873-1.17-1.85c-.645-1.016-1.18-5.225-1.192-9.351l-.02-7.503-1.93-1.6-1.929-1.602-3.07.34c-1.689.188-5.513-.1-8.5-.638l-5.428-.98-5.57 3.647c-3.064 2.006-5.57 4.376-5.57 5.267s-.9 1.966-2 2.388l-2 .767.017 3.042.016 3.041 10.088 4c5.549 2.2 11.99 4.678 14.316 5.508l4.227 1.508-.667 1.158c-.366.637-2.577 1.178-4.912 1.203l-4.246.045-3.356 3.621-3.357 3.622-3.063.001c-3.087.001-14.154 5.139-24.845 11.534l-5.782 3.458-10.13-1.634c-5.572-.899-10.864-1.915-11.76-2.26-2.227-.854-4.211-6.408-5.237-14.655l-.857-6.89 2.56-2.443c1.408-1.343 3.707-3.162 5.11-4.04l2.549-1.598-1.928-1.31-1.928-1.308-2.298 1.23-2.297 1.229-.515-1.544-.514-1.543-4.458 1.554c-2.452.855-7.047 1.554-10.21 1.554h-5.75l-6.765 2.667c-3.721 1.466-7.83 2.666-9.133 2.666h-2.367L836.915 953l-3.816 3.983-4.302.807-4.302.807-3.713 3.876-3.714 3.876h-6.913l-4.402 4.666-4.4 4.666h-8.912l-4.293 3.666c-5.586 4.77-20.372 14.193-27.59 17.582-3.123 1.467-7.99 4.935-10.815 7.708-7.702 7.56-12.88 11.067-20.56 13.92-3.817 1.418-7.84 3.614-8.94 4.88-2.925 3.367-12.974 8.872-20.968 11.487l-6.969 2.279-1.363-.843c-.75-.463-1.363-1.953-1.363-3.311v-2.47l4.059-3.415c2.232-1.878 6.647-4.56 9.81-5.96l5.751-2.544 3.64-4.772c2.002-2.625 4.747-5.124 6.1-5.553l2.46-.78 3.278-6.58 3.278-6.578 9.907-9.97 9.906-9.972 6.089-2.61c3.348-1.435 6.49-3.259 6.98-4.053.49-.794 2.152-1.443 3.692-1.443h2.8l5.596-6.096 5.597-6.096 3.785-.416 3.785-.415 3.868-4.821c4.581-5.71 6.627-6.034 8.746-1.384l1.566 3.437 8.98-.955c4.94-.525 11.306-1.772 14.148-2.77 2.842-.999 7.098-1.816 9.459-1.816h4.292l2.156-2.382c1.185-1.31 3.446-5.3 5.023-8.865l2.868-6.484-.653-5.8-.654-5.8h10.374l2.616-1.632 2.615-1.634 1.869 2.557 1.869 2.556 4.085-3.438 4.086-3.438 7.077-1.66c8.309-1.95 11.339-3.333 15.391-7.024l2.982-2.715 8.08-.339 8.08-.34 3.604-2.284c1.982-1.256 5.104-3.63 6.937-5.276l3.333-2.992 7.332-.72 7.333-.722 3.997-2.094c2.198-1.152 7.297-3.063 11.332-4.247 9.932-2.916 13.623-4.656 16.067-7.577l2.066-2.47 4.6-1.161c8.624-2.178 16.26-5.441 22.04-9.418l5.773-3.972 6.907-1.31c3.8-.72 10.661-1.31 15.249-1.31h8.34l.793 2.064.792 2.063 5.016-.836c2.76-.46 7.307-1.7 10.105-2.755 2.798-1.054 5.558-1.627 6.134-1.27.576.355 4.713-.035 9.193-.869l8.146-1.515 5.257 2.37 5.257 2.371 4.667-5.165 4.667-5.166 11.974-1.631 11.975-1.63 7.15 1.331c3.933.733 16.615 2.835 28.182 4.671l21.032 3.34 6.299 3.218c3.464 1.77 9.548 3.942 13.518 4.827l7.22 1.607 1.706-2.333 1.706-2.334 4.407.708c2.423.39 7.106 1.147 10.405 1.683l6 .974-2.528-2.848c-1.39-1.566-8.417-6.138-15.615-10.158l-13.088-7.31-15.715-5.905-15.715-5.904-13.998-2.769c-7.7-1.523-21.498-3.747-30.664-4.942l-16.665-2.173-20.665.725-20.664.725-21.15 2.84c-11.631 1.563-26.33 3.996-32.663 5.407a2373.81 2373.81 0 0 1-24.846 5.355c-23.059 4.823-68.297 20.171-101.324 34.376-13.678 5.883-82.771 41.465-91.324 47.03-4.033 2.625-11.232 7.046-15.999 9.825-4.766 2.78-11.365 6.89-14.665 9.133-3.3 2.245-11.999 8.098-19.331 13.008-7.333 4.91-14.832 10.361-16.665 12.113-1.834 1.752-6.278 5.204-9.877 7.671-15.005 10.285-54.94 48.012-72.954 68.92-24.624 28.58-28.453 34.482-48.372 74.55-7.268 14.62-14.046 28.08-15.062 29.914-7.612 13.735-20.278 51.986-22.956 69.326-1.48 9.575-2.152 15.48-5.57 48.9l-1.524 14.902.914 6.096c.503 3.352 1.41 6.095 2.018 6.095 2.063 0 3.233-9.959 3.366-28.664l.134-18.665 2.976-5.666c1.637-3.116 3.335-5.666 3.774-5.666.438 0 2.846 1.8 5.352 4l4.555 4h3.24c1.782 0 6.083.964 9.557 2.144l6.316 2.144 2.396-2.959c2.814-3.475 3.022-7.726.537-11l-1.775-2.338 1.236-6.8 1.236-6.802-1.927-4.193c-1.06-2.306-2.338-6.507-2.84-9.334l-.911-5.141 1.543-6.858c2.297-10.215 10.507-36.942 12.753-41.521 1.08-2.2 2.843-5.65 3.919-7.666a187.455 187.455 0 0 0 3.658-7.303c.935-2 3.625-4.933 5.978-6.519l4.277-2.882 7.553-11.376 7.553-11.376 6.426-3.497c7.361-4.007 7.798-4.534 10.508-12.69l2-6.018 7.999-.708 7.999-.708 4.267-2.292c2.346-1.26 5.155-2.291 6.242-2.291h1.975l2.771 3.892 2.771 3.891 1.275 6.72c.7 3.697 1.95 7.795 2.774 9.108l1.5 2.386 6.877 3.008c16.063 7.024 32.697 9.959 43.642 7.701l4.767-.983 2.069 2.068 2.068 2.068.953 12.4c.524 6.82 1.196 14.2 1.493 16.4.298 2.2.812 9.7 1.144 16.666.68 14.278 3.509 31.387 6.503 39.337 1.103 2.928 2.379 7.017 2.835 9.084.456 2.068 2.157 5.823 3.78 8.345l2.95 4.585 5 .825c2.75.454 5 1.284 5 1.845 0 .561 1.035 1.418 2.301 1.904l2.302.883-2.723-3.074c-1.498-1.69-4.773-7.573-7.279-13.073l-4.555-9.999-.446-15.998-.446-15.999 2.702-18.911c2.831-19.81 4.171-24.29 10.056-33.612l3.582-5.675 4.7-1.963 4.7-1.964 4.622 1.526 4.622 1.525 4.566 6.877 4.567 6.878 2.736 10.66 2.737 10.662.798 13.998.797 13.999-1.512 13.786-1.513 13.785-3.325 9.907c-4.097 12.204-4.1 11.98.178 15.66l3.505 3.013.663 6.9.663 6.899-2.45 3.688-2.448 3.688.154 7.706.154 7.707 3.269 4.292c3.096 4.066 5.53 9.356 5.654 12.292.03.733.88 3.316 1.886 5.74l1.83 4.407-1.563 1.562-1.562 1.563-2.278-1.437-2.279-1.437-.295-3.843-.295-3.843-2.311-1.69c-2.66-1.944-4.97-2.246-3.895-.508l.73 1.18-3.318.635-3.317.634v-1.749c0-.961.981-2.298 2.181-2.97l2.182-1.22-.026-5.845c-.014-3.214.515-6.518 1.175-7.342l1.2-1.498-.808-2.104-.807-2.104-4.882-1.562c-2.685-.86-6.138-2.705-7.674-4.102l-2.792-2.54-2.2.844-2.2.844.804 1.3.803 1.3-6.33-.66-6.33-.66-3.76-2.78-3.758-2.779H773.985l-2.298 2.54-2.299 2.54 2.786 5.459c1.532 3.003 3.108 5.46 3.503 5.46s.31-.663-.191-1.472l-.91-1.471 3.499 2.292 3.498 2.292 6.998.047 6.998.047 2.475 2.132c1.362 1.172 3.613 4.361 5.004 7.087 1.391 2.725 3.727 5.596 5.191 6.38 1.464.783 2.662 2.11 2.662 2.949s2.139 3.484 4.753 5.878l4.753 4.354-1.467 2.74-1.467 2.74h-1.952c-1.075 0-1.953.6-1.953 1.334v1.333h2.503c3.132 0 5.01 2.212 6.234 7.34.524 2.196 1.791 4.96 2.816 6.144 1.025 1.183 3.047 6.283 4.495 11.332l2.631 9.18.428 12 .427 11.999 1.451 2.666c.799 1.467 2.454 6.657 3.678 11.535l2.226 8.869 2.606 2.797 2.605 2.796h2.452c1.348 0 3.212.918 4.143 2.04l1.693 2.039-1.5 3.294-1.501 3.293h-1.927c-1.059 0-3.772 1.553-6.028 3.452l-4.101 3.451v2.446c0 1.345 1.553 4.291 3.451 6.547l3.452 4.102h10.534l4.947 2.525c2.72 1.388 5.973 3.66 7.227 5.046l2.28 2.523-2.478 3.778-2.479 3.779 4.374 3.84c2.405 2.112 5.194 3.859 6.197 3.882 1.003.023 2.95.896 4.327 1.938l2.503 1.895-2 5.062-1.998 5.062 1.377 3.023 1.376 3.023-4.02 4.976-4.02 4.976-10.526 2.022c-5.79 1.112-11.765 2.724-13.28 3.582l-2.755 1.56-9.91-.707-9.912-.708-6.01 3.25c-3.306 1.787-8.277 3.674-11.048 4.194l-5.037.945-8.284-2.9c-4.556-1.594-9.268-3.759-10.471-4.81l-2.188-1.912-20.477-.011c-11.262-.01-21.676.08-23.143.193-1.466.112-6.41-.646-10.985-1.685l-8.318-1.889-4.046.594-4.046.594-5.265-3.485c-5.365-3.55-9.737-4.84-25.624-7.563l-8.955-1.535-7.914.919-7.914.918-3.129-1.728c-1.72-.951-4.686-1.926-6.59-2.167l-3.46-.438-1.365 1.718c-.75.944-2.065 3.89-2.92 6.548l-1.555 4.832 1.699 3.728 1.699 3.729-1.651.55-1.65.55v4.446c0 2.445-.354 5.366-.785 6.49l-.785 2.045-4.77 1.574-4.77 1.575-1.778-2.432c-.978-1.337-1.778-3.745-1.778-5.35v-2.92l-4.712-3.595-4.713-3.594-3.953-.5-3.954-.5v1.09c0 .599 1.134 2.53 2.519 4.291 1.385 1.761 3.43 5.384 4.544 8.05l2.026 4.85 2.669.846c1.468.466 3.636 2.324 4.819 4.129l2.15 3.28h5.177l1.487 2.78 1.488 2.779 4.892 2.027 4.892 2.027 5.366 5.57 5.366 5.57 11.966 4.22c17.37 6.128 20.258 6.771 30.992 6.904l9.695.12zm-88.021-26.794-2.333-1.364v-5.258l3.293-1.5 3.294-1.5 2.04 1.692 2.039 1.693v6.339h-1.225c-.673 0-2.023.284-3 .63-.976.348-2.825.018-4.108-.732zm356.266-81.93-1.693-2.039 1.448-3.178 1.448-3.178 2.748-.872c1.511-.48 2.748-1.581 2.748-2.448s2.85-4.01 6.333-6.982l6.332-5.406 11.999-3.13c13.102-3.42 31.958-11.005 35.642-14.34l2.325-2.103 9.234-.37 9.235-.369 2.182 2.411 2.181 2.411-5.069 3.101c-2.787 1.706-8.16 6.006-11.94 9.557l-6.871 6.455-15.127 3.767c-8.32 2.071-18.569 4.78-22.776 6.017l-7.65 2.25-1.094 1.955c-1.045 1.866-15.291 8.433-18.44 8.5-.826.016-2.264-.887-3.195-2.009zm-81.82-9.296c-6.506-2.494-8.392-4.062-12.26-10.187l-3.09-4.897-1.546-8.873-1.545-8.873.588-12.914.589-12.913 6.339-13.999c17.38-38.385 47.932-78.153 98.986-128.85l24.364-24.195 13.711-10.571c33.719-25.998 60.99-39.796 83.33-42.16l6.96-.735 8.2 1.32 8.2 1.321 5.506 2.772c3.027 1.525 8.066 4.849 11.196 7.387l5.69 4.615 5.575 8.21c9.961 14.668 14.78 30.863 18.468 62.075l1.479 12.51-1.518 13.488c-.834 7.418-2.72 17.96-4.19 23.426l-2.673 9.94-4.747 9.033-4.747 9.033-8.36 9.799c-12.983 15.215-27.653 24.887-73.329 48.347-51.583 26.493-93.569 42.923-132.934 52.021l-20.384 4.711-11.332.575-11.333.574zm32.392-39.237c7.311-1.417 18.882-4.478 25.711-6.802 28.687-9.762 61.624-22.066 79.078-29.54 32.594-13.96 81.394-40.326 94.965-51.31 6.997-5.662 16.989-18.501 20.4-26.212l2.566-5.803.861-9.266.862-9.266-1.662-9.937c-.914-5.466-3.422-14.824-5.574-20.797l-3.914-10.86-5.296-7.138c-2.914-3.926-7.438-8.753-10.055-10.726l-4.757-3.586-7.067-.883-7.067-.883-5.8 1.348c-22.619 5.256-34.61 10.573-45.915 20.358-3.26 2.821-9.667 7.319-14.238 9.994-8.903 5.211-29.593 22.116-30.746 25.122-.384 1-5.092 5.593-10.462 10.206-5.37 4.613-14.714 13.829-20.765 20.478-6.05 6.65-16.134 17.49-22.406 24.09-6.273 6.599-14.125 15.298-17.448 19.331l-6.042 7.333-6.03 11.999c-3.317 6.599-8.636 16.205-11.821 21.347-5.103 8.237-12.577 25.223-12.577 28.583 0 .664.943 2.15 2.095 3.302l2.095 2.095h3.857c2.122 0 9.84-1.16 17.152-2.577zm-61.518-58.184c-.422-.421-.264-2.521.351-4.666 1.358-4.732 1.02-4.758-7.254-.56-8.105 4.111-11.137 4.163-16.888.288l-4.51-3.04-2.997-5.293c-3.767-6.653-10.182-26.184-12.904-39.29-2.533-12.196-4.148-29.292-6.8-71.993-4.006-64.46-4.833-75.553-6.808-91.324-1.102-8.8-3.197-20.072-4.654-25.051l-2.65-9.053-3.432-1.564-3.432-1.564-6.846 3.763c-3.765 2.07-13.144 7.157-20.844 11.305-7.699 4.149-18.1 10.473-23.113 14.053l-9.115 6.51-3.986-.113-3.986-.113-3.29-2.156c-4.3-2.817-5.839-7.15-5.836-16.435l.002-7.58 2.331-4.61 2.331-4.61 12.666-7.256a3965.323 3965.323 0 0 0 27.997-16.245c8.432-4.944 18.69-10.553 22.793-12.465l7.461-3.475h8.468l5.921 5.457 5.921 5.458 3.896 10.208c5.625 14.736 9.089 31.086 12.047 56.869l2.601 22.665 1.487 33.996c.818 18.698 2.06 39.996 2.76 47.329.7 7.333 1.907 20.231 2.684 28.664.777 8.432 2.474 20.218 3.771 26.19l2.359 10.86 2.275 3.473c4.243 6.475 6.04 4.263 9.59-11.798l2.345-10.603-.806-51.39c-.443-28.265-1.497-60.99-2.343-72.722l-1.538-21.331.746-26.664.746-26.664 2.057-9.333 2.057-9.332 4.146-8c5.617-10.835 9.558-15.822 17.405-22.025l6.638-5.247 5.55-1.494c3.052-.822 8.864-3.139 12.915-5.148 4.052-2.01 11.266-4.72 16.032-6.023s11.666-3.89 15.332-5.748c6.681-3.387 19.877-8.421 37.33-14.24 11.733-3.913 50.356-19.716 68.134-27.88l13.472-6.185h10.638l2.481 2.742 2.482 2.742.535 8.406.535 8.407-2.719 6.148-2.72 6.147-4.423 2.706c-2.433 1.488-7.123 3.694-10.423 4.901-3.3 1.207-10.499 3.968-15.998 6.134-5.5 2.167-16.299 6.225-23.998 9.019-22.62 8.208-37.286 14.046-48.649 19.364-10.664 4.992-13.269 5.979-45.089 17.094l-17.079 5.966-7.363 5.071-7.363 5.072-5.841 7.77-5.841 7.77-1.047 4.93c-.576 2.712-1.028 16.33-1.004 30.262l.045 25.33 1.955 25.332 1.956 25.33-.053 50.329c-.029 27.68.309 50.328.75 50.328.442 0 2.492-1.762 4.555-3.915l3.752-3.916.337-6.417c.185-3.529.78-9.416 1.323-13.082l.986-6.666 2.34-2.667c1.288-1.466 3.015-3.974 3.839-5.573l1.497-2.907-2.092-2.093c-1.151-1.15-2.566-2.092-3.144-2.092-.579 0-1.403-3.4-1.832-7.557l-.78-7.557 1.307-2.442 1.307-2.442h2.181c1.2 0 3.293 1.005 4.651 2.235l2.47 2.235 1.568-1.569c.863-.862 2.967-1.568 4.677-1.568h3.108l.767-2c.422-1.1.435-2.867.028-3.926l-.739-1.927-4.19 1.201-4.188 1.202-5.278-2.112-5.278-2.112.409-2.162.41-2.163 4.988-.413 4.988-.414-.051-1.586c-.029-.873-1.978-2.797-4.333-4.276l-4.282-2.69-3.613-6.642c-1.987-3.654-4.251-9.59-5.032-13.194l-1.42-6.55-.032-15.495c-.018-8.523.654-22.368 1.494-30.769l1.527-15.273 2.331-6.136c1.282-3.374 4.253-8.928 6.6-12.34l4.27-6.206 4.154-2.148 4.153-2.148 5.038 1.51 5.038 1.51 4.7 5.49 4.7 5.49 1.985 6.145c1.093 3.38 2.703 11.244 3.578 17.477l1.592 11.332-.173 16.665c-.095 9.166-.654 19.965-1.242 23.998-.587 4.033-.842 8.452-.566 9.82l.503 2.489 3.539-6.077 3.538-6.076 5.2-4.09 5.2-4.091 14.131.01c7.773 0 15.632-.071 17.465-.165 5.777-.296 25.91 1.214 27.998 2.1 1.1.467 3.07 2.992 4.378 5.61l2.38 4.763-6.46 6.188c-3.553 3.404-15.195 14.677-25.87 25.053-10.676 10.375-21.97 20.717-25.096 22.982-3.127 2.265-6.955 5.323-8.506 6.795-7.965 7.56-12.906 11.94-14.576 12.925-1.02.602-3.42 3.494-5.334 6.427-7.87 12.066-12.186 17.7-18.89 24.664l-7.06 7.333-2.775 6.42-2.776 6.422-5.321 5.584c-2.927 3.07-7.893 9.23-11.035 13.686-8.863 12.57-15.002 18.149-17.368 15.783zm108.312-148.551c0-.734-.935-1.334-2.078-1.334h-2.079l.824 1.334c.453.733 1.389 1.333 2.079 1.333.69 0 1.254-.6 1.254-1.333zm-64.918-21.047c2.765-3.055 6.257-11.397 6.257-14.947v-2.75l-3.845 2.844c-2.116 1.564-5.862 3.256-8.325 3.76l-4.479.915-.355 1.947c-.196 1.07.842 3.897 2.305 6.28l2.661 4.333h1.813c.997 0 2.783-1.072 3.968-2.382zm-319.044 322.35v-2.666h-1.778c-.978 0-2.172.395-2.655.877l-.877.878 1.485 1.789c2.145 2.584 3.825 2.199 3.825-.877zm95.324-134.005v-2.648h-4l-.442 3.118-.441 3.119 2.441-.47 2.442-.47zm-101.332-20.313a54.513 54.513 0 0 1-1.646-4.72l-.685-2.388-1.497.49-1.497.49-.417 4.231-.418 4.23h7.12zm195.322-17.665c0-.733-.9-1.333-2-1.333s-2 .6-2 1.333c0 .734.9 1.334 2 1.334s2-.6 2-1.334zm497.769-76.659.853-4-2.613 4.667c-1.436 2.566-2.613 5.866-2.614 7.332v2.667l1.762-3.333c.969-1.833 2.146-5.133 2.614-7.333zm9.553-30.664c4.327-17.14 8.326-42.742 6.9-44.169-.406-.405-1.16 2.167-1.676 5.718-.96 6.61-4.715 21.97-7.118 29.119-.74 2.2-2.575 7.942-4.077 12.76l-2.733 8.76.11 7.238.108 7.238 2.055-4.666c1.13-2.566 4.024-12.465 6.43-21.998zm-503.72-7.666c4.592-5.042 7.293-11.69 4.731-11.648-.55.01-2.367 2.127-4.039 4.707l-3.039 4.69-3.96.793c-5.619 1.124-5.098 4.458.695 4.458h2.879zm501.682-196.205c0-1.773-.362-4.17-.806-5.325l-.806-2.1-1.194.737c-.656.405-1.193 2.802-1.193 5.325v4.587h4z" style="fill:#f6b899" transform="matrix(.02344 0 0 .02344 -6.039 -6.089)"/><path d="M257.622 942.35v-682.6h1365.2v1365.2h-1365.2zm471.65 585.305c12.265-2.185 27.101-5.497 32.967-7.36 5.866-1.863 14.565-4.24 19.332-5.282 4.766-1.042 15.265-3.327 23.33-5.078 28.414-6.166 47.122-11.935 78.66-24.257 8.066-3.15 19.684-6.989 25.818-8.529s16.033-4.96 21.998-7.602c5.964-2.642 16.232-6.613 22.816-8.824 6.584-2.211 14.726-5.417 18.093-7.123 3.368-1.706 9.98-4.075 14.693-5.264 4.714-1.189 14.27-4.802 21.236-8.029 6.966-3.227 21.365-9.232 31.997-13.344l19.331-7.476 30.511-15.294c16.78-8.412 32.08-16.4 33.997-17.752 1.917-1.351 7.923-4.313 13.347-6.58 8.45-3.534 24.983-13.338 39.467-23.404 2.2-1.528 9.4-6.338 15.999-10.688 12.129-7.994 19.693-14.396 49.666-42.033l16.534-15.245 8.374-10.467 8.374-10.466 8.823-17.618 8.823-17.617 5.428-15.999c6.512-19.192 12.384-42.058 15.236-59.327l2.092-12.666 1.503-27.583 1.503-27.584-2.014-6.12-2.015-6.12 1.931-5.604 1.931-5.606-.888-12.686-.888-12.687-2.438-9.774-2.437-9.774-2.108-2.33-2.108-2.33v-3.147c0-1.731.708-6.574 1.573-10.762l1.572-7.615-2.305-14.15c-1.269-7.784-3.168-16.594-4.22-19.578l-1.916-5.427-8.607-9.297-8.607-9.296-1.54-4.666-1.54-4.666 1.61-3.886 1.61-3.886-3.72-6.349c-2.047-3.491-6.4-9.213-9.676-12.714l-5.955-6.367-7.226-4.134-7.227-4.135-1.253-3.296c-.69-1.812-.891-3.881-.449-4.597l.805-1.302-1.58-3.814-1.58-3.814-11.547-8.5c-6.351-4.674-17.024-11.585-23.717-15.358l-12.17-6.859-15.827-5.947-15.828-5.947-13.998-2.769c-7.7-1.523-21.498-3.747-30.664-4.942l-16.665-2.173-20.665.725-20.664.725-21.15 2.84c-11.631 1.563-26.33 3.996-32.663 5.407a2373.81 2373.81 0 0 1-24.846 5.355c-23.457 4.907-68.597 20.274-102.657 34.948-15.889 6.845-72.544 35.943-89.325 45.877-38.242 22.639-72.76 47.071-97.91 69.302-16.204 14.324-39.919 37.302-45.41 43.998-2.565 3.13-9.69 11.556-15.833 18.724-6.142 7.167-13.235 16.221-15.762 20.119-8.81 13.59-25.33 43.686-32.335 58.907-3.881 8.432-7.5 15.931-8.042 16.665-1.672 2.26-11.7 30.168-14.131 39.329-1.265 4.766-2.817 9.695-3.45 10.953-2.566 5.11-8.223 44.812-9.74 68.373l-.86 13.332 1.457 22.664c2.23 34.683 6.799 68.96 9.594 71.982l1.223 1.322 1.036-1.676 1.036-1.676-.95-6.979-.95-6.978 1.984-6.666c1.092-3.667 2.225-7.458 2.519-8.425l.533-1.758 2.404.763 2.403.763 1.69-4.671c1.998-5.527 3.363-5.826 6.278-1.377l2.158 3.293 1.376 15.62 1.376 15.62-1.455 14.75-1.456 14.75 1.272 8.666c1.12 7.637 2.38 13.84 6.497 31.997 1.22 5.383 6.552 17.02 8.289 18.094l1.178.728v14.414l2.667 1.427 2.666 1.427v2.44c0 1.342 1.133 3.88 2.519 5.641 1.385 1.761 3.43 5.384 4.544 8.051l2.026 4.849 2.669.847c1.468.466 3.636 2.323 4.819 4.128l2.15 3.28h5.177l1.487 2.78 1.488 2.78 4.892 2.026 4.892 2.027 5.366 5.57 5.366 5.57 11.966 4.22c17.37 6.128 20.258 6.771 30.992 6.904l9.695.12zm-87.021-30.692c.453-.733 1.388-1.333 2.078-1.333s1.255.6 1.255 1.333c0 .734-.935 1.334-2.079 1.334h-2.078zm-31.5-51.661c-.789-2.017-1.524-5.445-1.633-7.618l-.197-3.951 2.33-.479 2.328-.478 1.337 3.516c.736 1.935 1.337 5.578 1.337 8.097v4.58H612.188zm304.947-35.667c-6.507-2.494-8.393-4.062-12.26-10.187l-3.092-4.897-1.545-8.873-1.545-8.873.588-12.914.589-12.913 6.339-13.999c17.38-38.385 47.932-78.153 98.986-128.85l24.364-24.195 13.711-10.571c33.719-25.998 60.99-39.796 83.33-42.16l6.96-.735 8.2 1.32 8.2 1.321 5.506 2.772c3.027 1.525 8.066 4.849 11.196 7.387l5.69 4.615 5.575 8.21c9.961 14.668 14.78 30.863 18.468 62.075l1.479 12.51-1.518 13.488c-.834 7.418-2.72 17.96-4.19 23.426l-2.673 9.94-4.747 9.033-4.747 9.033-8.36 9.799c-12.983 15.215-27.653 24.887-73.329 48.347-51.583 26.493-93.569 42.923-132.934 52.021l-20.384 4.711-11.332.575-11.333.574zm32.39-39.237c7.312-1.417 18.883-4.478 25.712-6.802 28.687-9.762 61.624-22.066 79.078-29.54 32.594-13.96 81.394-40.326 94.965-51.31 6.997-5.662 16.989-18.501 20.4-26.212l2.566-5.803.861-9.266.862-9.266-1.662-9.937c-.914-5.466-3.422-14.824-5.574-20.797l-3.914-10.86-5.296-7.138c-2.914-3.926-7.438-8.753-10.055-10.726l-4.757-3.586-7.067-.883-7.067-.883-5.8 1.348c-22.619 5.256-34.61 10.573-45.915 20.358-3.26 2.821-9.667 7.319-14.238 9.994-8.903 5.211-29.593 22.116-30.746 25.122-.384 1-5.092 5.593-10.462 10.206-5.37 4.613-14.714 13.829-20.765 20.478-6.05 6.65-16.134 17.49-22.406 24.09-6.273 6.599-14.125 15.298-17.448 19.331l-6.042 7.333-6.03 11.999c-3.317 6.599-8.636 16.205-11.821 21.347-5.103 8.237-12.577 25.223-12.577 28.583 0 .664.943 2.15 2.095 3.302l2.095 2.095h3.857c2.122 0 9.84-1.16 17.152-2.577zm-231.178 15.393-6.666-3.157-4.666-4.903-4.666-4.904v-20.65l6.747-8.599 6.748-8.599 4.585-2.269c5.718-2.83 9.406-2.824 18.124.03l6.873 2.249 4.76 4.33c6.162 5.608 8.341 9.985 9.457 18.993l.909 7.331-3.772 7.203-3.773 7.202-6.476 4.463-6.477 4.463-7.52-.013-7.52-.013zm-75.992-29.033c-4.078-2.25-9.928-7.884-14.17-13.646l-3.829-5.2.007-6.8c.004-3.739.624-9.016 1.377-11.726l1.368-4.928 5.32-5.071c2.926-2.79 7.247-6.121 9.602-7.405l4.282-2.333h14.147l5.052 2.578 5.053 2.577 5.745 7.61 5.745 7.609.656 5.827.657 5.828-2.288 5.991-2.288 5.992-5.735 5.735-5.735 5.735-5.306 1.59c-6.582 1.972-16.121 1.99-19.66.037zm-74.678-44.777c-.535-2.016-1.194-5.365-1.464-7.44l-.49-3.776 1.986-1.986 1.986-1.986.016-3.572.016-3.57 3.317 5.802c3.862 6.755 4.036 8.815 1.3 15.366l-2.018 4.829h-3.675zm160.003 1.353c-1.467-.37-5.173-2.47-8.236-4.668l-5.57-3.997-2.762-6.423-2.764-6.424v-15.77l3.82-5.2c2.1-2.86 5.341-6.6 7.203-8.31l3.385-3.111 5.128-1.19c2.82-.655 8.21-1.205 11.977-1.222l6.849-.032 6.483 4.333 6.484 4.332 2.33 4.764 2.33 4.764.76 9.901.76 9.902-2.424 4.666-2.423 4.666-7.333 4.96-7.332 4.958-8-.114c-4.4-.063-9.199-.416-10.665-.786zm136.537-6.058-4.51-3.04-2.997-5.293c-3.767-6.653-10.182-26.184-12.904-39.29-2.533-12.196-4.148-29.292-6.8-71.993-4.006-64.46-4.833-75.553-6.808-91.324-1.102-8.8-3.185-20.034-4.628-24.966l-2.624-8.968-2.55-1.364c-1.402-.751-3.347-1.365-4.322-1.365-2.744 0-37.46 19.303-49.301 27.412l-10.588 7.251H745.723l-3.708-3.189-3.707-3.189-.436-9.81-.436-9.81 2.403-4.61 2.402-4.61 12.666-7.256a3965.323 3965.323 0 0 0 27.997-16.245c8.432-4.944 18.69-10.553 22.793-12.465l7.461-3.475h8.468l5.921 5.457 5.921 5.458 3.896 10.207c8.88 23.263 12.507 48.372 15.538 107.532 4.042 78.888 8.598 115.565 15.343 123.528l2.648 3.126 1.838-2.364c1.01-1.3 2.9-7.431 4.2-13.624l2.363-11.259-.814-51.037c-.447-28.07-1.504-60.636-2.348-72.368l-1.536-21.331.746-26.664.746-26.664 2.057-9.333 2.057-9.332 4.146-8c5.617-10.835 9.558-15.822 17.405-22.025l6.638-5.247 5.55-1.494c3.052-.822 8.864-3.139 12.915-5.148 4.052-2.01 11.266-4.72 16.032-6.023s11.666-3.89 15.332-5.748c6.681-3.387 19.877-8.421 37.33-14.24 11.733-3.913 50.356-19.716 68.134-27.88l13.473-6.185h10.638l2.48 2.742 2.482 2.742.535 8.406.535 8.407-2.719 6.148-2.72 6.147-4.423 2.706c-2.433 1.488-7.123 3.694-10.423 4.901-3.3 1.207-10.499 3.968-15.998 6.134-5.5 2.167-16.299 6.225-23.998 9.019-21.477 7.794-37.07 13.95-47.329 18.689-11.027 5.093-32.549 13.3-49.328 18.813l-11.999 3.941-8.666 5.137c-10.792 6.398-13.553 9.336-18.225 19.393l-3.715 7.995-.01 27.331-.01 27.33 1.98 25.331 1.982 25.331-.13 45.33-.129 45.328-2.153 11.999c-2.547 14.191-6.5 26.224-10.616 32.31l-2.97 4.393-5.421 2.646c-6.899 3.369-8.513 3.323-14.027-.392zm-68.544-92.167c-5.585-2.483-9.243-6.83-13.562-16.12l-3.717-7.996-.45-15.998-.449-15.999 2.702-18.911c2.831-19.81 4.171-24.29 10.056-33.612l3.582-5.675 4.7-1.963 4.7-1.964 4.622 1.526 4.622 1.525 4.566 6.877 4.566 6.877 2.91 10.662 2.91 10.66.085 22.665.086 22.665-2.35 10.15-2.35 10.152-3.967 6.256-3.968 6.257-4.605 1.924c-5.636 2.355-9.46 2.366-14.689.042zm9.6-37.114c4.593-5.043 7.294-11.692 4.732-11.65-.55.01-2.367 2.128-4.039 4.708l-3.039 4.69-3.96.793c-5.619 1.124-5.098 4.458.695 4.458h2.879zm115.715-.755-5.34-2.489-3.591-6.6c-1.976-3.63-4.238-9.478-5.026-12.996l-1.434-6.397-.033-15.593c-.018-8.576.654-22.466 1.494-30.867l1.527-15.273 2.331-6.136c1.282-3.374 4.253-8.928 6.601-12.34l4.27-6.206 4.153-2.148 4.153-2.148 4.993 1.496 4.992 1.496 4.29 4.886c7.296 8.31 9.31 15.326 11.912 41.505l1.368 13.76-1.41 12.904c-1.715 15.702-4.532 27.22-8.31 33.967l-2.835 5.066-4.112 2.541c-2.261 1.398-6.484 2.883-9.383 3.3l-5.271.76zm10.414-34.624c2.765-3.055 6.257-11.397 6.257-14.947v-2.75l-3.845 2.844c-2.116 1.564-5.862 3.256-8.325 3.76l-4.479.915-.355 1.947c-.196 1.07.842 3.897 2.305 6.28l2.661 4.333h1.813c.997 0 2.783-1.072 3.968-2.382zm308.134 15.16-4.094-1.783-4.917-7.406-4.916-7.407-.821-7.857-.821-7.857 2.666-5.9c3.12-6.9 6.824-11.05 12.469-13.97l4.06-2.1 8.9-.708 8.899-.71 7.333 5.143 7.332 5.142 2.338 4.765c1.286 2.62 2.968 8.173 3.738 12.339l1.4 7.574-3.6 6.616c-4.883 8.97-6.993 10.602-17.468 13.506-10.526 2.919-16.81 3.09-22.498.613zm-36.408-78.108c-2.478-.585-5.953-1.84-7.723-2.786l-3.219-1.723-4.609-7.368-4.608-7.368v-6.45c0-3.549.675-9.135 1.501-12.415l1.502-5.963 5.427-4.646 5.427-4.645 5.19-1.398 5.192-1.398 9.3 1.444 9.301 1.443 3.866 2.858 3.866 2.858 2.904 6.115 2.903 6.115.071 7.333.071 7.332-2.884 5.523-2.883 5.523-5.424 4.642-5.423 4.642-4.955.82c-6.017.994-8.918.899-14.793-.488z" style="fill:#f4a17b" transform="matrix(.02344 0 0 .02344 -6.039 -6.089)"/><path d="M257.622 942.35v-682.6h1365.2v1365.2h-1365.2zm465.595 587.896c10.463-2.226 26.223-6.213 35.023-8.86 16.048-4.828 22.488-6.369 45.995-11.002 6.966-1.373 20.409-4.406 29.872-6.74l17.207-4.245 8.124-3.82c11.251-5.292 42.708-17.28 45.34-17.28 3.28 0 30.521-9.031 39.865-13.216 4.534-2.03 11.544-4.77 15.577-6.086 4.033-1.317 9.732-3.755 12.665-5.419 2.933-1.663 10.133-4.315 15.999-5.892 10.246-2.755 16.542-5.162 47.328-18.091 7.7-3.234 16.399-6.753 19.332-7.82 9.354-3.404 22.515-9.374 27.49-12.47 2.652-1.65 5.128-3 5.502-3 .374 0 5.703-2.786 11.841-6.19 6.139-3.406 19.56-10.38 29.826-15.5 10.266-5.12 23.765-12.45 29.997-16.292 6.233-3.842 13.262-8.116 15.62-9.499 11.933-6.994 31.773-21.482 40.528-29.593 5.415-5.017 16.47-15.153 24.564-22.524 25.314-23.05 36.245-37.022 49.223-62.92 10.694-21.34 21.093-56.742 26.657-90.747l3.17-19.375 1.608-28.663 1.609-28.664-.881-15.332c-1.555-27.04-9.28-88.58-13.002-103.579l-1.387-5.588-4.332-5.077c-5.47-6.413-7.807-11.03-10.666-21.076l-2.276-8-8.773-13.102-8.774-13.103-6.588-5.555-6.588-5.555-2.405-4.673c-4.274-8.305-15.316-16.544-40.81-30.453l-14.5-7.91-10-2.97c-5.5-1.633-12.099-4.025-14.665-5.314-2.566-1.29-11.266-3.878-19.331-5.752l-14.666-3.406-15.998-1.537c-8.8-.845-25.898-1.73-37.996-1.964l-21.998-.427-18.665 2.594c-10.266 1.427-24.664 3.682-31.997 5.011-19.106 3.465-68.988 16.666-85.727 22.688-24.517 8.82-78.328 32.02-93.532 40.326-5.53 3.021-18.975 10.223-29.876 16.003-17.875 9.478-29.875 16.88-45.507 28.07-2.933 2.099-10.732 7.442-17.331 11.873-6.6 4.431-14.458 10.069-17.464 12.529-3.005 2.46-8.405 6.703-11.999 9.43-11.326 8.594-46.165 39.849-55.196 49.517-8.71 9.325-19.592 22.128-33.488 39.399-16.487 20.492-43.033 68.188-53.222 95.626-10.318 27.783-17.003 54.424-20.736 82.625l-2.03 15.332-.166 33.996-.167 33.997 2.912 20.665c7.412 52.602 18.307 86.179 40.882 125.987 3.326 5.867 6.627 12.016 7.335 13.666.707 1.65 1.852 3 2.544 3s2.58 2.926 4.197 6.504l2.94 6.504 6.168 4.566c3.392 2.51 9.977 6.933 14.631 9.827 4.655 2.894 11.15 7.52 14.435 10.28 7.317 6.149 10.235 7.662 23.613 12.246 12.49 4.279 19.271 5.724 27.789 5.921l6.306.146zm192.48-120.698c-6.468-2.37-8.369-3.937-12.26-10.1l-3.09-4.897-1.546-8.873-1.545-8.873.588-12.914.589-12.913 6.339-13.999c17.38-38.385 47.932-78.153 98.986-128.85l24.364-24.195 13.711-10.571c33.719-25.998 60.99-39.796 83.33-42.16l6.96-.735 8.2 1.32 8.2 1.321 5.506 2.772c3.027 1.525 8.066 4.849 11.196 7.387l5.69 4.615 5.575 8.21c3.066 4.515 7.264 12.558 9.328 17.874l3.753 9.666 2.798 15.679 2.797 15.679.086 15.332.086 15.332-2.304 11.795c-3.102 15.878-6.506 24.487-14.275 36.104l-6.528 9.76-8.375 7.833c-4.606 4.309-14.962 12.291-23.013 17.74l-14.639 9.906-31.185 15.884c-55.709 28.377-97.161 43.939-142.585 53.53l-16.254 3.431-7.644-.094-7.645-.094zm32.392-39.15c7.311-1.417 18.882-4.478 25.711-6.802 28.687-9.762 61.624-22.066 79.078-29.54 32.594-13.96 81.394-40.326 94.965-51.31 6.997-5.662 16.989-18.502 20.4-26.212l2.566-5.803.861-9.266.862-9.266-1.662-9.937c-.914-5.466-3.422-14.824-5.574-20.797l-3.914-10.86-5.296-7.138c-2.914-3.927-7.438-8.753-10.055-10.726l-4.757-3.586-7.067-.883-7.067-.883-5.8 1.348c-22.619 5.256-34.61 10.573-45.915 20.358-3.26 2.821-9.667 7.319-14.238 9.994-8.903 5.211-29.593 22.116-30.746 25.122-.384 1-5.092 5.593-10.462 10.206-5.37 4.613-14.714 13.829-20.765 20.478-6.05 6.65-16.134 17.49-22.406 24.09-6.273 6.599-14.125 15.298-17.448 19.331l-6.042 7.333-6.03 11.999c-3.317 6.599-8.636 16.205-11.821 21.347-5.103 8.237-12.577 25.223-12.577 28.583 0 .664.943 2.15 2.095 3.302l2.095 2.095h3.857c2.122 0 9.84-1.16 17.152-2.577zm-85.401-65.294c-6.542-5.146-12.022-18.26-18.433-44.118l-2.81-11.332-1.308-14.665c-5.275-59.151-6.313-72-5.875-72.707.273-.442-.037-7.661-.689-16.043-.652-8.382-1.832-23.64-2.623-33.905-1.693-21.978-4.385-37.354-7.951-45.415l-2.572-5.814-3.55-.89-3.551-.892-5.545 1.66c-8.391 2.513-21.404 9.445-36.128 19.245-7.288 4.85-15.538 9.505-18.335 10.342l-5.085 1.524-3.399-1.548-3.398-1.549-1.944-4.651-1.943-4.652.837-7.677c.46-4.223 1.621-8.94 2.58-10.48l1.745-2.803 13.763-7.784c7.57-4.28 19.527-11.229 26.57-15.44 7.044-4.21 16.701-9.495 21.46-11.744l8.655-4.09h8.511l5.163 5 5.162 5 3.439 8.86c1.891 4.874 4.947 15.073 6.79 22.665l3.353 13.804 2.577 33.996c1.417 18.698 2.944 43.896 3.393 55.995 2.087 56.316 8.41 96.839 16.688 106.967l2.471 3.022 1.52-1.491c.835-.82 2.754-6.22 4.263-11.999l2.746-10.508.107-41.996.106-41.995-2.481-46.662-2.482-46.663 1.613-15.65 1.613-15.652 3.074-9.038c4.156-12.22 7.98-19.433 13.603-25.656 5.396-5.973 15.939-13.33 19.103-13.33 1.178 0 6.324-1.99 11.437-4.423 5.112-2.433 13.194-5.503 17.96-6.821 4.766-1.319 11.666-3.918 15.332-5.777 6.681-3.387 19.877-8.421 37.33-14.24 11.774-3.927 50.377-19.726 68.283-27.948l13.622-6.254 4.742.89 4.742.889 1.968 2.809 1.967 2.808v17.405l-2.331 4.666-2.331 4.667-7.333 3.964c-4.033 2.18-17.232 7.362-29.33 11.513-23.894 8.199-40.044 14.402-75.993 29.187-12.832 5.278-29.32 11.693-36.639 14.256-7.319 2.563-16.918 6.324-21.331 8.358l-8.024 3.697-4.264 4.508c-2.346 2.48-5.622 7.508-7.28 11.175l-3.016 6.666.04 29.997.038 29.997 1.559 16.665 1.559 16.665.27 42.662.272 42.663-1.698 15.88c-1.866 17.46-5.09 31.619-9.566 42.024l-2.915 6.776-4.544 3.99-4.544 3.99H865.926zm-69.242-94.099c-4.54-2.467-10.173-9.963-12.548-16.696-1.047-2.966-2.523-11.433-3.28-18.814l-1.377-13.42 1.37-12.205c.755-6.713 1.975-16.104 2.712-20.87l1.34-8.667 3.348-6.923c1.841-3.808 5.06-8.758 7.155-11l3.806-4.074h3.531c7.484 0 14.34 6.057 20.374 17.998 3.466 6.86 5.55 16.83 6.522 31.196l.776 11.466-2.162 15.22-2.162 15.22-3.507 7.814-3.506 7.814-4.515 3.963-4.514 3.964-4.953-.053-4.954-.053zm10.39-33.01c4.593-5.043 7.294-11.692 4.732-11.65-.55.01-2.367 2.128-4.039 4.708l-3.039 4.69-3.96.793c-5.619 1.123-5.098 4.458.695 4.458h2.879zm117.054-3.613c-3.788-1.577-9.28-7.79-12.625-14.28l-2.866-5.561-.76-17.483-.76-17.483 1.58-14.953c.868-8.224 2.237-17.55 3.042-20.727l1.464-5.774 5.053-7.817 5.052-7.817 4.22-2.182 4.22-2.182 3.087.774c1.697.426 4.962 2.353 7.254 4.282l4.168 3.507 3.161 6.238 3.161 6.238 2.107 10.197 2.106 10.197v30.11l-1.964 9.999c-2.659 13.542-4.181 18.393-7.729 24.625l-3.013 5.293-4.51 3.04-4.51 3.038-4.135-.084c-2.275-.046-5.336-.584-6.803-1.194zm9.075-31.766c2.74-3.027 6.257-11.385 6.257-14.867v-2.669l-4.852 3.293c-2.669 1.811-6.118 3.302-7.666 3.313-1.547.011-3.587.511-4.532 1.11l-1.718 1.09 1.273 3.35c1.542 4.054 5.07 7.762 7.385 7.762.934 0 2.668-1.072 3.853-2.382z" style="fill:#e736af" transform="matrix(.02344 0 0 .02344 -6.039 -6.089)"/><path d="M257.622 942.35v-682.6h1365.2v1365.2h-1365.2zm474.716 588.662c23.067-3.934 44.461-8.624 64.46-14.128 8.123-2.236 19.57-5.295 25.435-6.798 21.464-5.501 94.053-29.816 116.364-38.98 7.86-3.227 16.39-6.466 18.956-7.197 5.358-1.525 41.994-15.919 62.661-24.619 7.7-3.24 20.898-8.737 29.33-12.214 14.954-6.166 66.585-31.556 75.961-37.356 2.584-1.598 9.315-5.074 14.957-7.724l10.259-4.82 27.386-18.25 27.386-18.252 11.017-9.961c43.228-39.085 50.827-47.058 62.013-65.06 21.732-34.977 36.954-85.87 41.869-139.987l1.574-17.331.01-32.664.01-32.663-3.632-26.664c-4.821-35.407-8.517-58.315-10.062-62.379-.694-1.825-3.014-5.335-5.155-7.8-5.142-5.918-6.736-9.113-10.292-20.641l-2.982-9.665-7.64-11.085c-4.201-6.097-11.328-14.713-15.836-19.147-4.508-4.434-9.397-10.1-10.863-12.591l-2.667-4.53-11.332-8.646c-15.325-11.694-33.55-21.914-51.995-29.156l-15.332-6.02-15.088-3.127c-8.3-1.72-22.098-4.105-30.664-5.302l-15.575-2.175-25.998.674-25.997.673-19.365 2.81c-52.482 7.618-87.726 17.374-142.62 39.48-32.898 13.25-93.636 44.122-117.988 59.973-5.866 3.818-12.582 8.08-14.924 9.469-8.12 4.818-33.104 22.317-39.737 27.83-3.666 3.049-9.366 7.395-12.666 9.659-13.175 9.039-53.18 47.359-70.85 67.867-18.316 21.256-22.539 26.992-34.01 46.197-32.78 54.878-48.586 97.339-56.688 152.277l-1.769 12 .091 38.662.091 38.663 2.92 21.331c4.143 30.265 8.268 46.277 21.124 81.992l5.999 16.665 9.067 16.665c4.987 9.166 9.458 17.96 9.936 19.542.478 1.582 1.72 3.203 2.76 3.602 1.042.4 3.438 3.174 5.327 6.166 4.37 6.923 11.064 12.947 27.096 24.385 15.089 10.764 27.795 17.121 41.577 20.8l9.999 2.67 13.428.08 13.428.081zm191.897-129-3.321-1.773-.442-2.296-.442-2.295 3.096-1.17c1.704-.643 10.296-2.507 19.096-4.141 19.378-3.6 38.983-8.806 47.995-12.745 3.666-1.602 9.666-4.002 13.332-5.333l6.666-2.42 3.964-3.96 3.964-3.96 9.368-2.92c10.91-3.402 51.348-21.654 62.03-27.998 4.032-2.395 15.131-8.728 24.664-14.072 30.761-17.247 42.207-25.824 59.625-44.68 4.573-4.95 10.217-9.93 11.256-9.93 1.377 0-.558 8.75-3.278 14.827a1859.107 1859.107 0 0 0-5.24 11.838c-1.444 3.3-5.71 9.679-9.482 14.176l-6.856 8.176-12.135 8.312c-6.674 4.571-18.53 11.631-26.346 15.69-43.67 22.673-53.466 27.504-62.704 30.922-5.592 2.07-15.567 6.516-22.166 9.881l-11.999 6.12-13.332 3.912c-7.333 2.151-25.03 6.713-39.33 10.137l-25.997 6.225-9.332.625-9.333.625zm-13.344-40.027c0-1.644 3.134-10.147 6.964-18.895l6.964-15.905 6.24-6.769 6.24-6.768 1.012.996 1.014.995-2.552 7.528c-1.403 4.14-4.497 10.592-6.875 14.337-2.379 3.744-6.048 10.434-8.154 14.866-3.835 8.07-7.294 12.606-9.615 12.606h-1.238zm-46.864-57.036c-5.635-3.29-14.277-24.331-18.59-45.263-2.887-14.012-4.022-26.137-7.93-84.691-4.13-61.869-4.995-72.249-7.32-87.79-2.353-15.722-4.811-24.06-8.195-27.8l-2.172-2.399h-8.289l-18.574 10.137c-10.215 5.576-22.44 12.785-27.165 16.02-9.34 6.396-12.558 7.613-18.36 6.944l-3.796-.437-1.678-3.333-1.677-3.333-.02-7.127-.02-7.127 2.174-3.68 2.173-3.679 6.826-3.557c3.754-1.957 8.925-4.831 11.492-6.387 19.8-12.007 34.344-20.205 42.016-23.683l9.014-4.088h7.426l4.16 3.501c6.917 5.82 12.568 19.102 17.515 41.162 3.327 14.837 4.449 27.948 7.858 91.834 1.482 27.778 3.638 58.643 4.791 68.588l2.097 18.083 3.194 12.595c4.571 18.02 7.885 22.142 13.135 16.341l2.297-2.538 2.062-7.794 2.062-7.795.648-37.33.649-37.329-1.486-29.997c-.817-16.498-2.184-37.219-3.037-46.045l-1.552-16.047 1.554-20.121c.855-11.067 2.47-24.477 3.59-29.8l2.036-9.68 4.214-7.905 4.214-7.905 6.8-6.908 6.8-6.908 5.298-2.154a2686.4 2686.4 0 0 0 12.63-5.19c4.032-1.67 13.631-5.26 21.33-7.978 7.7-2.719 21.198-7.772 29.997-11.23 8.8-3.457 20.798-7.963 26.665-10.013 11.268-3.938 51.367-20.88 65.993-27.882 4.766-2.282 10.576-4.53 12.91-4.996l4.245-.848 3.596 3.597 3.596 3.596-.695 7.669-.695 7.668-2.169 4.194-2.168 4.193-3.993 2.065c-2.196 1.135-20.934 8.409-41.64 16.163s-45.746 17.585-55.645 21.847c-9.9 4.261-27.508 11.117-39.131 15.235-24.802 8.787-32.361 12.41-39.68 19.023l-5.388 4.868-3.364 6.637-3.363 6.638-1.41 13.938-1.41 13.938 1.545 29.504c.85 16.228 2.262 44.303 3.139 62.39l1.594 32.886-1.55 29.108-1.549 29.109-2.632 10.232c-1.447 5.627-3.948 13.29-5.556 17.029l-2.924 6.797-3.924 3.302-3.925 3.302-4.23-.04c-2.327-.023-5.222-.62-6.433-1.327zm316.505-50.294-1.667-.557-.01-15.554c-.01-8.555-.605-20.953-1.33-27.553l-1.317-11.999-5.643-11.112-5.642-11.113-10.347-8.219-10.347-8.218-9.415-2.756c-5.178-1.516-9.534-3.315-9.68-4l-.264-1.244 3.359-.392c1.847-.216 7.016.746 11.485 2.137l8.127 2.53 8.513 6.088c4.682 3.349 10.124 7.787 12.095 9.862l3.581 3.773 4.13 10.336c2.272 5.684 4.724 13.55 5.45 17.478l1.32 7.143-.366 21.963-.366 21.964zm-387.63-44.113-4-2.44-3.55-6.555-3.55-6.554-1.45-7.91c-.796-4.352-1.448-13.423-1.448-20.16v-12.247l2.734-15.838 2.735-15.838 4.171-9.092 4.172-9.091 2.723-1.908c1.498-1.049 4.309-1.907 6.247-1.907h3.523l3.513 2.764c5.096 4.008 9.76 12.685 12.143 22.585l2.08 8.648.807 15.332.807 15.331-1.527 12.366-1.528 12.366-2.7 7.219-2.701 7.218-4.647 4.08-4.647 4.08h-4.953l-4.954-.01zm11.408-29.226 4.117-3.679 2.442-7.213 2.442-7.213-.778-2.026-.777-2.026-1.428 2.39a810.126 810.126 0 0 1-5.018 8.18l-3.592 5.79-5.718 1.54-5.718 1.539 3.718 3.198c4.685 4.03 5.294 4.002 10.31-.48zm244.34 2.767c4.676-5.11 15.56-13.034 15.56-11.33 0 1.21-2.405 3.201-13.999 11.593l-5.333 3.86zm-129.516-11.128-4.423-2.696-3.576-7.631-3.577-7.631.09-27.33.089-27.332 1.734-7.999c.954-4.4 3.432-11.369 5.506-15.487l3.772-7.488 4.173-3.51 4.172-3.512h6.067l4.53 3.002 4.53 3.001 3.081 6.205 3.08 6.205 1.948 11.791 1.947 11.792.004 15.565.004 15.564-2.142 10.433L948 1156.33l-3.557 6.628-3.556 6.629-4.53 3.037-4.53 3.037h-8.272zm11.448-27.359c3.915-2.742 5.619-6.147 8.309-16.605l2.243-8.722-.919-2.62-.919-2.62-2.787 6.3-2.787 6.301-4.416 1.936c-2.429 1.065-6.135 2.302-8.236 2.749l-3.82.812.84 4.205.842 4.205 2.878 3.063c3.393 3.612 4.808 3.772 8.772.996z" style="fill:#2b6efb" transform="matrix(.02344 0 0 .02344 -6.039 -6.089)"/><path d="m684.913 1574.218-11.998-1.023-12-4.269c-20.344-7.237-34.18-15.565-51.578-31.045l-11.112-9.886-10.282-14.013c-15.666-21.35-29.884-46.66-37.824-67.332-20.638-53.73-29.3-97.472-33.876-171.094l-1.456-23.427 1.444-16.77c.795-9.223 2.92-25.378 4.725-35.9 1.804-10.522 4.245-25.093 5.425-32.38 6.337-39.145 31.266-99.886 60.956-148.52l10.042-16.448 1.607-6.698 1.607-6.699-.846-8.252c-.465-4.538-3.845-20.52-7.51-35.513-7.451-30.475-13.42-62.296-16.74-89.256l-2.218-17.999.704-29.997.704-29.997 3.318-12.79c4.141-15.962 7.478-22.567 15.372-30.427l6.211-6.185 5.488-1.63c7.476-2.22 13.838-2.047 23.963.65l8.557 2.28 2.241-2.24 2.241-2.242-.249-21.703-.249-21.703 2.038-24.438c1.121-13.441 3.496-32.94 5.277-43.33l3.239-18.89 3.399-8.666 3.398-8.666 4.992-6.547c2.746-3.6 7.12-8.256 9.72-10.345l4.728-3.8 7.544-1.582 7.543-1.582 7.206 2.271c3.964 1.25 9.84 4.057 13.06 6.238 3.219 2.181 6.881 3.977 8.139 3.99l2.286.025 1.202-2.333c.661-1.284 3.45-12.533 6.196-24.998l4.995-22.664 5.07-14.415c5.723-16.27 11.223-26.192 19.934-35.957l5.972-6.696 6.693-3.117 6.693-3.117h14.665l6.922 3.223c10.463 4.872 14.472 8.358 21.8 18.959 7.482 10.823 8.053 11.368 10.38 9.93l1.644-1.016 6.56-26.56c6.646-26.911 10.913-39.536 18.893-55.905l4.414-9.051 5.719-6.361 5.72-6.362 6.898-3.437 6.898-3.438h13.658l7.133 2.119 7.133 2.118 7.453 7.547 7.453 7.548 3.552 7.374c1.954 4.056 5.214 13.568 7.244 21.138l3.69 13.764 1.879.72 1.878.721 1.026-1.66c.564-.913 3.88-12.25 7.367-25.192 7.576-28.115 17.774-56.227 24.789-68.333l5.102-8.805 7.96-7.37 7.96-7.369 6.33-2.157c3.483-1.186 8.475-2.144 11.094-2.128l4.762.03 5.674 2.575c8.456 3.838 14.746 9.112 19.841 16.634l4.559 6.73 4.702 14.998 4.702 14.999h1.762c2.803 0 3.99-2.132 13.366-23.998 4.873-11.366 11.302-24.793 14.287-29.84l5.427-9.174 8.874-9.034 8.875-9.034 7.86-2.285 7.86-2.285 7.159.739 7.159.738 6.037 2.923c12.387 5.997 19.237 16.376 25.63 38.84l4.055 14.253 1.447 13.078c.796 7.194 1.88 19.672 2.41 27.73l.965 14.652 2.142.408 2.143.408 9.19-14.87 9.189-14.87 7.742-8.476 7.741-8.476 8.835-4.35 8.835-4.349 8.985-.507 8.985-.508 7.262 3.325c3.994 1.828 9.627 5.46 12.517 8.072l5.256 4.748 3.488 6.408c4.78 8.783 8.666 23.468 11.065 41.81l2.016 15.412-1.247 27.917-1.246 27.917-6.173 38.663c-10.432 65.342-18.88 97.77-48.85 187.515l-19.88 59.528v8.618l2.686 4.344 2.684 4.343 7.648 5.741c13.779 10.343 26.126 21.41 37.432 33.55l11.12 11.94 8.478 12.94c4.663 7.118 11.515 19.005 15.225 26.417l6.746 13.475 4.696 14.442c8.897 27.368 14.065 54.794 18.168 96.434l1.773 17.998v65.327l-1.718 26.664-1.719 26.664-3.39 21.998c-4.177 27.1-10.432 53.478-18.494 77.993l-6.138 18.664-8.683 17.999-8.684 17.998-9.785 14.665-9.785 14.665-13.404 14.83-13.404 14.83-19.725 16.571c-10.848 9.115-25.525 20.852-32.614 26.083-33.271 24.55-90.299 56.115-139.095 76.99a4349.267 4349.267 0 0 0-29.998 13.015c-9.165 4.021-25.664 10.748-36.663 14.948-95.548 36.485-112.942 42.506-178.837 61.907-45.922 13.52-47.833 14.003-71.553 18.077l-19.747 3.39-12.917-.19c-7.104-.104-18.316-.65-24.916-1.213zm47.425-43.206c23.067-3.934 44.461-8.624 64.46-14.128 8.123-2.236 19.57-5.295 25.435-6.798 21.464-5.501 94.053-29.816 116.364-38.98 7.86-3.227 16.39-6.466 18.956-7.197 5.358-1.525 41.994-15.919 62.661-24.619 7.7-3.24 20.898-8.737 29.33-12.214 14.954-6.166 66.585-31.556 75.961-37.356 2.584-1.598 9.315-5.074 14.957-7.724l10.259-4.82 27.386-18.25 27.386-18.252 11.017-9.961c43.228-39.085 50.827-47.058 62.013-65.06 21.732-34.977 36.954-85.87 41.869-139.987l1.574-17.331.01-32.664.01-32.663-3.632-26.664c-4.821-35.407-8.517-58.315-10.062-62.379-.694-1.825-3.014-5.335-5.155-7.8-5.142-5.918-6.736-9.113-10.292-20.641l-2.982-9.665-7.64-11.085c-4.201-6.097-11.328-14.713-15.836-19.147-4.508-4.434-9.397-10.1-10.863-12.591l-2.667-4.53-11.332-8.646c-15.325-11.694-33.55-21.914-51.995-29.156l-15.332-6.02-15.088-3.127c-8.3-1.72-22.098-4.105-30.664-5.302l-15.575-2.175-25.998.674-25.997.673-19.365 2.81c-52.482 7.618-87.726 17.374-142.62 39.48-32.898 13.25-93.636 44.122-117.988 59.973-5.866 3.818-12.582 8.08-14.924 9.469-8.12 4.818-33.104 22.317-39.737 27.83-3.666 3.049-9.366 7.395-12.666 9.659-13.175 9.039-53.18 47.359-70.85 67.867-18.316 21.256-22.539 26.992-34.01 46.197-32.78 54.878-48.586 97.339-56.688 152.277l-1.769 12 .091 38.662.091 38.663 2.92 21.331c4.143 30.265 8.268 46.277 21.124 81.992l5.999 16.665 9.067 16.665c4.987 9.166 9.458 17.96 9.936 19.542.478 1.582 1.72 3.203 2.76 3.602 1.042.4 3.438 3.174 5.327 6.166 4.37 6.923 11.064 12.947 27.096 24.385 15.089 10.764 27.795 17.121 41.577 20.8l9.999 2.67 13.428.08 13.428.081zm191.897-129-3.321-1.773-.442-2.296-.442-2.295 3.096-1.17c1.704-.643 10.296-2.507 19.096-4.141 19.378-3.6 38.983-8.806 47.995-12.745 3.666-1.602 9.666-4.002 13.332-5.333l6.666-2.42 3.964-3.96 3.964-3.96 9.368-2.92c10.91-3.402 51.348-21.654 62.03-27.998 4.032-2.395 15.131-8.728 24.664-14.072 30.761-17.247 42.207-25.824 59.625-44.68 4.573-4.95 10.217-9.93 11.256-9.93 1.377 0-.558 8.75-3.278 14.827a1859.107 1859.107 0 0 0-5.24 11.838c-1.444 3.3-5.71 9.679-9.482 14.176l-6.856 8.176-12.135 8.312c-6.674 4.571-18.53 11.631-26.346 15.69-43.67 22.673-53.466 27.504-62.704 30.922-5.592 2.07-15.567 6.516-22.166 9.881l-11.999 6.12-13.332 3.912c-7.333 2.151-25.03 6.713-39.33 10.137l-25.997 6.225-9.332.625-9.333.625zm-13.344-40.027c0-1.644 3.134-10.147 6.964-18.895l6.964-15.905 6.24-6.769 6.24-6.768 1.012.996 1.014.995-2.552 7.528c-1.403 4.14-4.497 10.592-6.875 14.337-2.379 3.744-6.048 10.434-8.154 14.866-3.835 8.07-7.294 12.606-9.615 12.606h-1.238zm-46.864-57.036c-5.635-3.29-14.277-24.331-18.59-45.263-2.887-14.012-4.022-26.137-7.93-84.691-4.13-61.869-4.995-72.249-7.32-87.79-2.353-15.722-4.811-24.06-8.195-27.8l-2.172-2.399h-8.289l-18.574 10.137c-10.215 5.576-22.44 12.785-27.165 16.02-9.34 6.396-12.558 7.613-18.36 6.944l-3.796-.437-1.678-3.333-1.677-3.333-.02-7.127-.02-7.127 2.174-3.68 2.173-3.679 6.826-3.557c3.754-1.957 8.925-4.831 11.492-6.387 19.8-12.007 34.344-20.205 42.016-23.683l9.014-4.088h7.426l4.16 3.501c6.917 5.82 12.568 19.102 17.515 41.162 3.327 14.837 4.449 27.948 7.858 91.834 1.482 27.778 3.638 58.643 4.791 68.588l2.097 18.083 3.194 12.595c4.571 18.02 7.885 22.142 13.135 16.341l2.297-2.538 2.062-7.794 2.062-7.795.648-37.33.649-37.329-1.486-29.997c-.817-16.498-2.184-37.219-3.037-46.045l-1.552-16.047 1.554-20.121c.855-11.067 2.47-24.477 3.59-29.8l2.036-9.68 4.214-7.905 4.214-7.905 6.8-6.908 6.8-6.908 5.298-2.154a2686.4 2686.4 0 0 0 12.63-5.19c4.032-1.67 13.631-5.26 21.33-7.978 7.7-2.719 21.198-7.772 29.997-11.23 8.8-3.457 20.798-7.963 26.665-10.013 11.268-3.938 51.367-20.88 65.993-27.882 4.766-2.282 10.576-4.53 12.91-4.996l4.245-.848 3.596 3.597 3.596 3.596-.695 7.669-.695 7.668-2.169 4.194-2.168 4.193-3.993 2.065c-2.196 1.135-20.934 8.409-41.64 16.163s-45.746 17.585-55.645 21.847c-9.9 4.261-27.508 11.117-39.131 15.235-24.802 8.787-32.361 12.41-39.68 19.023l-5.388 4.868-3.364 6.637-3.363 6.638-1.41 13.938-1.41 13.938 1.545 29.504c.85 16.228 2.262 44.303 3.139 62.39l1.594 32.886-1.55 29.108-1.549 29.109-2.632 10.232c-1.447 5.627-3.948 13.29-5.556 17.029l-2.924 6.797-3.924 3.302-3.925 3.302-4.23-.04c-2.327-.023-5.222-.62-6.433-1.327zm316.505-50.294-1.667-.557-.01-15.554c-.01-8.555-.605-20.953-1.33-27.553l-1.317-11.999-5.643-11.112-5.642-11.113-10.347-8.219-10.347-8.218-9.415-2.756c-5.178-1.516-9.534-3.315-9.68-4l-.264-1.244 3.359-.392c1.847-.216 7.016.746 11.485 2.137l8.127 2.53 8.513 6.088c4.682 3.349 10.124 7.787 12.095 9.862l3.581 3.773 4.13 10.336c2.272 5.684 4.724 13.55 5.45 17.478l1.32 7.143-.366 21.963-.366 21.964zm-387.63-44.113-4-2.44-3.55-6.555-3.55-6.554-1.45-7.91c-.796-4.352-1.448-13.423-1.448-20.16v-12.247l2.734-15.838 2.735-15.838 4.171-9.092 4.172-9.091 2.723-1.908c1.498-1.049 4.309-1.907 6.247-1.907h3.523l3.513 2.764c5.096 4.008 9.76 12.685 12.143 22.585l2.08 8.648.807 15.332.807 15.331-1.527 12.366-1.528 12.366-2.7 7.219-2.701 7.218-4.647 4.08-4.647 4.08h-4.953l-4.954-.01zm11.135-28.92 4.006-3.37 2.154-5.641c1.185-3.103 2.102-6.835 2.037-8.295-.065-1.46-.049-7.27.036-12.911l.155-10.258-2.695-6.092-2.695-6.092-3.066-1.14c-5.831-2.167-11.75 2.344-15.366 11.71l-2.366 6.131.15 11.333.151 11.332 2.891 6.286 2.891 6.287 2.921 2.046c3.817 2.673 4.094 2.632 8.796-1.325zm244.613 2.461c4.676-5.11 15.56-13.034 15.56-11.33 0 1.21-2.405 3.201-13.999 11.593l-5.333 3.86zm-129.516-11.128-4.423-2.696-3.576-7.631-3.577-7.631.09-27.33.089-27.332 1.734-7.999c.954-4.4 3.432-11.369 5.506-15.487l3.772-7.488 4.173-3.51 4.172-3.512h6.067l4.53 3.002 4.53 3.001 3.081 6.205 3.08 6.205 1.948 11.791 1.947 11.792.004 15.565.004 15.564-2.142 10.433L948 1156.33l-3.557 6.628-3.556 6.629-4.53 3.037-4.53 3.037h-8.272zm11.466-27.372c1.634-1.144 3.787-3.694 4.784-5.666 1.892-3.74 5.408-17.27 5.09-19.583-.101-.734-.477-4.333-.836-8-.359-3.666-1.022-8.766-1.475-11.332l-.824-4.666-2.79-3-2.791-3h-5.737l-2.835 3.018c-4.057 4.32-6.88 11.812-7.814 20.738l-.809 7.74 2.252 9.917 2.251 9.916 2.811 3c3.326 3.55 4.753 3.7 8.723.918z" style="fill:#e40605" transform="matrix(.02344 0 0 .02344 -6.039 -6.089)"/><path d="m684.913 1574.218-11.998-1.023-12-4.269c-20.344-7.237-34.18-15.565-51.578-31.045l-11.112-9.886-10.282-14.013c-15.666-21.35-29.884-46.66-37.824-67.332-20.638-53.73-29.3-97.472-33.876-171.094l-1.456-23.427 1.444-16.77c.795-9.223 2.92-25.378 4.725-35.9 1.804-10.522 4.245-25.093 5.425-32.38 6.337-39.145 31.266-99.886 60.956-148.52l10.042-16.448 1.607-6.698 1.607-6.699-.846-8.252c-.465-4.538-3.845-20.52-7.51-35.513-7.451-30.475-13.42-62.296-16.74-89.256l-2.218-17.999.704-29.997.704-29.997 3.318-12.79c4.141-15.962 7.478-22.567 15.372-30.427l6.211-6.185 5.488-1.63c7.476-2.22 13.838-2.047 23.963.65l8.557 2.28 2.241-2.24 2.241-2.242-.249-21.703-.249-21.703 2.038-24.438c1.121-13.441 3.496-32.94 5.277-43.33l3.239-18.89 3.399-8.666 3.398-8.666 4.992-6.547c2.746-3.6 7.12-8.256 9.72-10.345l4.728-3.8 7.544-1.582 7.543-1.582 7.206 2.271c3.964 1.25 9.84 4.057 13.06 6.238 3.219 2.181 6.881 3.977 8.139 3.99l2.286.025 1.202-2.333c.661-1.284 3.45-12.533 6.196-24.998l4.995-22.664 5.07-14.415c5.723-16.27 11.223-26.192 19.934-35.957l5.972-6.696 6.693-3.117 6.693-3.117h14.665l6.922 3.223c10.463 4.872 14.472 8.358 21.8 18.959 7.482 10.823 8.053 11.368 10.38 9.93l1.644-1.016 6.56-26.56c6.646-26.911 10.913-39.536 18.893-55.905l4.414-9.051 5.719-6.361 5.72-6.362 6.898-3.437 6.898-3.438h13.658l7.133 2.119 7.133 2.118 7.453 7.547 7.453 7.548 3.552 7.374c1.954 4.056 5.214 13.568 7.244 21.138l3.69 13.764 1.879.72 1.878.721 1.026-1.66c.564-.913 3.88-12.25 7.367-25.192 7.576-28.115 17.774-56.227 24.789-68.333l5.102-8.805 7.96-7.37 7.96-7.369 6.33-2.157c3.483-1.186 8.475-2.144 11.094-2.128l4.762.03 5.674 2.575c8.456 3.838 14.746 9.112 19.841 16.634l4.559 6.73 4.702 14.998 4.702 14.999h1.762c2.803 0 3.99-2.132 13.366-23.998 4.873-11.366 11.302-24.793 14.287-29.84l5.427-9.174 8.874-9.034 8.875-9.034 7.86-2.285 7.86-2.285 7.159.739 7.159.738 6.037 2.923c12.387 5.997 19.237 16.376 25.63 38.84l4.055 14.253 1.447 13.078c.796 7.194 1.88 19.672 2.41 27.73l.965 14.652 2.142.408 2.143.408 9.19-14.87 9.189-14.87 7.742-8.476 7.741-8.476 8.835-4.35 8.835-4.349 8.985-.507 8.985-.508 7.262 3.325c3.994 1.828 9.627 5.46 12.517 8.072l5.256 4.748 3.488 6.408c4.78 8.783 8.666 23.468 11.065 41.81l2.016 15.412-1.247 27.917-1.246 27.917-6.173 38.663c-10.432 65.342-18.88 97.77-48.85 187.515l-19.88 59.528v8.618l2.686 4.344 2.684 4.343 7.648 5.741c13.779 10.343 26.126 21.41 37.432 33.55l11.12 11.94 8.478 12.94c4.663 7.118 11.515 19.005 15.225 26.417l6.746 13.475 4.696 14.442c8.897 27.368 14.065 54.794 18.168 96.434l1.773 17.998v65.327l-1.718 26.664-1.719 26.664-3.39 21.998c-4.177 27.1-10.432 53.478-18.494 77.993l-6.138 18.664-8.683 17.999-8.684 17.998-9.785 14.665-9.785 14.665-13.404 14.83-13.404 14.83-19.725 16.571c-10.848 9.115-25.525 20.852-32.614 26.083-33.271 24.55-90.299 56.115-139.095 76.99a4349.267 4349.267 0 0 0-29.998 13.015c-9.165 4.021-25.664 10.748-36.663 14.948-95.548 36.485-112.942 42.506-178.837 61.907-45.922 13.52-47.833 14.003-71.553 18.077l-19.747 3.39-12.917-.19c-7.104-.104-18.316-.65-24.916-1.213zm47.425-43.206c23.067-3.934 44.461-8.624 64.46-14.128 8.123-2.236 19.57-5.295 25.435-6.798 21.464-5.501 94.053-29.816 116.364-38.98 7.86-3.227 16.39-6.466 18.956-7.197 5.358-1.525 41.994-15.919 62.661-24.619 7.7-3.24 20.898-8.737 29.33-12.214 14.954-6.166 66.585-31.556 75.961-37.356 2.584-1.598 9.315-5.074 14.957-7.724l10.259-4.82 27.386-18.25 27.386-18.252 11.017-9.961c43.228-39.085 50.827-47.058 62.013-65.06 21.732-34.977 36.954-85.87 41.869-139.987l1.574-17.331.01-32.664.01-32.663-3.628-26.664c-1.995-14.666-5.052-35.544-6.793-46.396l-3.166-19.732-5.324-10.932c-2.929-6.012-7.415-15.845-9.97-21.85l-4.645-10.92-10.025-15.246-10.026-15.246-12.344-12.913-12.345-12.913-14.044-9.39-14.043-9.391-16.178-7.807c-8.898-4.294-17-8.798-18.006-10.01l-1.828-2.202.14-6.849.141-6.849 6.272-16.665c3.45-9.165 8.875-23.864 12.055-32.663 3.181-8.8 8.861-24.398 12.623-34.663 11.9-32.477 13.279-36.472 26.893-77.993 18.486-56.38 32.571-108.424 36.442-134.653 4.277-28.977 4.724-34.048 4.764-53.995l.04-19.998-1.326-6.784c-.73-3.731-2.322-9.273-3.54-12.315l-2.212-5.531-4.575-4.017-4.574-4.017h-3.79c-11.574 0-23.263 10.504-36.352 32.664-9.208 15.59-36.866 76.178-50.512 110.656-9.612 24.282-24.858 62.919-28.718 72.775-1.891 4.83-5.1 12.029-7.13 15.998l-3.692 7.217h-3.7l.274-10.676.274-10.676 4.082-19.145c9.378-43.983 16.253-82.226 22.797-126.82l4.206-28.663.675-30.476.674-30.475-1.64-10.187c-.902-5.604-2.807-13.313-4.234-17.132l-2.594-6.944-4.027-3.388-4.027-3.389h-3.964c-5.605 0-10.72 2.995-16.677 9.767l-5.152 5.856-5.855 11.854c-7.651 15.49-15.513 34.939-27.695 68.514-8.529 23.507-15.117 44.394-33.22 105.323-5.038 16.956-11.203 34.043-13.43 37.222l-1.974 2.819-1.242-.768-1.242-.767v-11.327c0-6.23 1.593-29.442 3.54-51.583l3.541-40.256.126-36.663.125-36.663-1.867-8.666c-2.201-10.212-4.513-15.322-9.2-20.332l-3.43-3.666H1018.465l-4.27 3.258-4.272 3.257-5.406 10.408c-8.101 15.594-10.197 21.84-20.49 61.07-10.512 40.063-12.602 48.883-19.106 80.658-2.477 12.1-6.888 32.497-9.803 45.33-2.915 12.831-6.92 32.63-8.9 43.995-7.752 44.515-13.388 69.773-16.657 74.66l-1.339 2-1.312-2c-1.851-2.82-1.809-.68-1.977-99.324l-.152-89.325-1.653-17.97c-.91-9.883-2.83-23.604-4.268-30.492l-2.615-12.523-3.032-5.504-3.031-5.504-4.725-2.541-4.725-2.541-3.484.874c-1.915.48-5.328 2.72-7.584 4.975l-4.101 4.101-4.579 9.565c-5.115 10.684-13.18 36.84-16.21 52.571-6.124 31.798-11.822 68.01-17.883 113.645-3.749 28.23-7.558 54.287-8.465 57.903l-1.648 6.575-1.53.51-1.529.51-2.119-7.085-2.119-7.085-1.253-15.998c-2.355-30.068-5.365-54.656-9.331-76.215l-3.965-21.553-3.812-11.342-3.81-11.342-4.453-6.938-4.452-6.938-4.085-2.491-4.084-2.49-3.663-.006-3.662-.005-5.563 5-5.564 5-5.004 10.665-5.004 10.666-4.015 17.998c-6.899 30.928-10.115 62.017-12.194 117.862l-1.335 35.87-1.407 5.224-1.407 5.225-1.71-1.42-1.712-1.42-4.833-16.344c-2.659-8.989-7.243-25.175-10.187-35.969-5.88-21.562-12.308-38.606-17.879-47.416l-3.614-5.714-4.285-2.648-4.286-2.647-3.333.775-3.333.775-4.424 4.367-4.424 4.368-3.296 11.218-3.296 11.219-1.424 15.332-1.425 15.332.82 35.996c1.08 47.4 3.852 83.186 10.838 139.947 1.08 8.777 1.965 20.045 1.965 25.039v9.08l-2.064.793-2.064.792-1.885-2.5c-1.036-1.376-4.872-9.7-8.524-18.5-25.34-61.053-34.579-76.82-48.393-82.582l-4.936-2.058-3.063 1.171c-4.093 1.565-7.155 5.135-9.888 11.525l-2.259 5.285-.626 18.252-.627 18.252 1.55 15.078c3.335 32.466 13.976 76.863 32.273 134.647 3.642 11.501 7.185 24.372 7.873 28.6l1.252 7.69-3.146 6.728c-1.73 3.701-5.807 9.797-9.059 13.547-3.251 3.75-9.433 12.149-13.737 18.665s-9.661 14.547-11.905 17.847c-7.983 11.738-21.138 38.351-30.799 62.306l-9.803 24.31-2.727 11.02c-3.097 12.511-6.125 32.374-8.793 57.682l-1.827 17.331-.06 23.331c-.167 65.073 7.684 111.878 26.835 159.985l6.635 16.665 8.485 15.065c4.667 8.286 8.84 16.18 9.272 17.542.432 1.362 1.637 2.803 2.678 3.202 1.04.4 3.437 3.174 5.326 6.166 4.37 6.923 11.064 12.947 27.097 24.385 15.088 10.764 27.795 17.121 41.576 20.8l10 2.67 13.427.08 13.428.081zm129.327-241.48-4.102-3.452v-3.619c0-1.99-2.137-9.886-4.748-17.546-2.612-7.66-6.626-22.327-8.921-32.592l-4.174-18.665-.134-64.66-.135-64.661-3.109-12.665c-4.796-19.54-6.224-21.491-17.048-23.284l-5.606-.928-7.726 1.593-7.726 1.593-6 3.369c-3.3 1.852-12.143 6.944-19.652 11.314l-13.652 7.946-4.346.198-4.346.198-.392-3.36-.392-3.36 3.725-3.413c5.326-4.878 22.571-15.533 40.499-25.022l15.442-8.174h9.526l5.388 4.333c2.963 2.383 6.867 5.371 8.674 6.64l3.287 2.307 2.689 8.358c6.919 21.507 9.225 40.48 10.253 84.352l.657 27.997-1.552 11.332-1.551 11.333 1.417 13.332c.78 7.332 2.643 17.831 4.14 23.33 4.347 15.959 12.37 48.355 12.877 51.996l.464 3.333 2.23 1.333c4.405 2.633 8.607 6.214 8.607 7.334 0 .628-.943 2.084-2.095 3.236l-2.095 2.095h-6.271zm16.306-20.88c.417-3.116 1.404-9.565 2.194-14.332l1.437-8.665 1.035-33.901 1.035-33.9-.95-9.43c-.523-5.185-1.603-17.227-2.4-26.76-.798-9.532-2.15-24.871-3.005-34.087l-1.555-16.757 1.521-19.24 1.52-19.24 2.804-9.977c1.541-5.488 4.944-14.053 7.562-19.035l4.76-9.057 3.888-3.273c7.077-5.954 20.579-12.65 36.597-18.15 35.145-12.068 37.358-12.915 74.468-28.492 8.066-3.385 17.965-7.398 21.998-8.916 4.033-1.518 10.509-4.189 14.392-5.934 3.882-1.746 11.407-4.453 16.72-6.017l9.661-2.842 6.277 2.777 6.278 2.777v5.525l-4.333 1.856c-7.33 3.138-36.79 14.1-37.895 14.1-.573 0-6.155 2.065-12.404 4.589-6.249 2.523-18.451 7.331-27.116 10.683-8.664 3.352-18.263 7.376-21.33 8.942-3.068 1.566-10.378 4.474-16.244 6.463-13.949 4.73-49.552 18.354-54.08 20.695-1.948 1.008-6.346 4.557-9.772 7.887l-6.23 6.055-2.487 5.8c-1.367 3.19-3.804 10.243-5.415 15.672l-2.929 9.871-.7 18.01-.7 18.01 2.707 14.653c1.49 8.06 3.376 20.653 4.193 27.986.817 7.333 2.067 18.14 2.779 24.018l1.294 10.686-1.305 25.31c-1.639 31.81-4.974 59.978-8.063 68.103l-1.218 3.204h-5.746zm-90.423-75.997-5.67-5.67-1.48-5.329-1.479-5.328-.007-10.826-.007-10.826 2.704-15.572c1.487-8.564 3.657-17.952 4.82-20.862l2.118-5.291 3.358-2.642 3.358-2.64h3.952c4.91 0 11.785 3.179 15.558 7.195l2.862 3.046 2.446 8.553c1.345 4.703 2.87 13.09 3.39 18.638l.946 10.087-5.597 3.704-5.596 3.703-.996-1.61-.996-1.612.684-8.518.684-8.518-2.252-5.897c-2.66-6.964-4.9-9.107-9.52-9.107h-3.398l-3.23 3.034c-1.776 1.668-4.294 5.793-5.596 9.165l-2.366 6.132.15 11.333.15 11.332 2.919 6.347 2.918 6.347 3.193 2.092 3.194 2.093 5.48-.396 5.48-.395 1.093 1.769c1.64 2.653.168 6.55-3.59 9.506l-3.349 2.634H793.22zm130.336-33.751-5.673-3.4-2.207-4.253-2.206-4.253-.608-12.666-.609-12.665 1.43-15.332 1.432-15.332 2.179-6.322 2.18-6.322 3.745-4.01 3.747-4.01h5.13l5.132.01 4.251 2.591 4.251 2.593 1.408 5.068c.774 2.788 1.41 5.737 1.415 6.552.004.816 1.807 3.748 4.007 6.516l4 5.033v12.882l-1.81-.694-1.81-.695-1.645 3.974c-.905 2.185-2.45 4.282-3.434 4.66l-1.789.686-.614-3.59c-.338-1.975-.646-5.09-.684-6.924-.039-1.833-.451-5.432-.916-7.999l-.847-4.666-2.79-3-2.791-3h-5.737l-2.835 3.018c-4.057 4.32-6.88 11.812-7.814 20.738l-.809 7.74 2.252 9.917 2.251 9.916 2.811 3 2.811 3h8.774l1.454 2.716 1.454 2.717-.835 2.63-.835 2.631-3.839 1.985c-5.145 2.66-6.36 2.526-12.977-1.44z" style="fill:#a00608" transform="matrix(.02344 0 0 .02344 -6.039 -6.089)"/><path d="m684.913 1574.218-11.998-1.023-12-4.269c-20.344-7.237-34.18-15.565-51.578-31.045l-11.112-9.886-10.282-14.013c-15.666-21.35-29.884-46.66-37.824-67.332-20.638-53.73-29.3-97.472-33.876-171.094l-1.456-23.427 1.444-16.77c.795-9.223 2.92-25.378 4.725-35.9 1.804-10.522 4.245-25.093 5.425-32.38 6.337-39.145 31.266-99.886 60.956-148.52l10.042-16.448 1.607-6.698 1.607-6.699-.846-8.252c-.465-4.538-3.845-20.52-7.51-35.513-7.451-30.475-13.42-62.296-16.74-89.256l-2.218-17.999.704-29.997.704-29.997 3.318-12.79c4.141-15.962 7.478-22.567 15.372-30.427l6.211-6.185 5.488-1.63c7.476-2.22 13.838-2.047 23.963.65l8.557 2.28 2.241-2.24 2.241-2.242-.249-21.703-.249-21.703 2.038-24.438c1.121-13.441 3.496-32.94 5.277-43.33l3.239-18.89 3.399-8.666 3.398-8.666 4.992-6.547c2.746-3.6 7.12-8.256 9.72-10.345l4.728-3.8 7.544-1.582 7.543-1.582 7.206 2.271c3.964 1.25 9.84 4.057 13.06 6.238 3.219 2.181 6.881 3.977 8.139 3.99l2.286.025 1.202-2.333c.661-1.284 3.45-12.533 6.196-24.998l4.995-22.664 5.07-14.415c5.723-16.27 11.223-26.192 19.934-35.957l5.972-6.696 6.693-3.117 6.693-3.117h14.665l6.922 3.223c10.463 4.872 14.472 8.358 21.8 18.959 7.482 10.823 8.053 11.368 10.38 9.93l1.644-1.016 6.56-26.56c6.646-26.911 10.913-39.536 18.893-55.905l4.414-9.051 5.719-6.361 5.72-6.362 6.898-3.437 6.898-3.438h13.658l7.133 2.119 7.133 2.118 7.453 7.547 7.453 7.548 3.552 7.374c1.954 4.056 5.214 13.568 7.244 21.138l3.69 13.764 1.879.72 1.878.721 1.026-1.66c.564-.913 3.88-12.25 7.367-25.192 7.576-28.115 17.774-56.227 24.789-68.333l5.102-8.805 7.96-7.37 7.96-7.369 6.33-2.157c3.483-1.186 8.475-2.144 11.094-2.128l4.762.03 5.674 2.575c8.456 3.838 14.746 9.112 19.841 16.634l4.559 6.73 4.702 14.998 4.702 14.999h1.762c2.803 0 3.99-2.132 13.366-23.998 4.873-11.366 11.302-24.793 14.287-29.84l5.427-9.174 8.874-9.034 8.875-9.034 7.86-2.285 7.86-2.285 7.159.739 7.159.738 6.037 2.923c12.387 5.997 19.237 16.376 25.63 38.84l4.055 14.253 1.447 13.078c.796 7.194 1.88 19.672 2.41 27.73l.965 14.652 2.142.408 2.143.408 9.19-14.87 9.189-14.87 7.742-8.476 7.741-8.476 8.835-4.35 8.835-4.349 8.985-.507 8.985-.508 7.262 3.325c3.994 1.828 9.627 5.46 12.517 8.072l5.256 4.748 3.488 6.408c4.78 8.783 8.666 23.468 11.065 41.81l2.016 15.412-1.247 27.917-1.246 27.917-6.173 38.663c-10.432 65.342-18.88 97.77-48.85 187.515l-19.88 59.528v8.618l2.686 4.344 2.684 4.343 7.648 5.741c13.779 10.343 26.126 21.41 37.432 33.55l11.12 11.94 8.478 12.94c4.663 7.118 11.515 19.005 15.225 26.417l6.746 13.475 4.696 14.442c8.897 27.368 14.065 54.794 18.168 96.434l1.773 17.998v65.327l-1.718 26.664-1.719 26.664-3.39 21.998c-4.177 27.1-10.432 53.478-18.494 77.993l-6.138 18.664-8.683 17.999-8.684 17.998-9.785 14.665-9.785 14.665-13.404 14.83-13.404 14.83-19.725 16.571c-10.848 9.115-25.525 20.852-32.614 26.083-33.271 24.55-90.299 56.115-139.095 76.99a4349.267 4349.267 0 0 0-29.998 13.015c-9.165 4.021-25.664 10.748-36.663 14.948-95.548 36.485-112.942 42.506-178.837 61.907-45.922 13.52-47.833 14.003-71.553 18.077l-19.747 3.39-12.917-.19c-7.104-.104-18.316-.65-24.916-1.213zm48.135-41.25c18.03-2.789 51.473-10.5 75.187-17.338 7.699-2.22 19.698-5.501 26.664-7.292 13.748-3.534 82.579-26.821 101.99-34.505 6.6-2.613 20.098-7.725 29.997-11.36 68.984-25.334 161.265-69.187 202.647-96.299 34.04-22.301 51.452-36.522 81.382-66.462l18.054-18.06 6.154-9.333c14.422-21.87 24.24-44.239 32.904-74.973 9.626-34.144 14.013-64.853 15.64-109.477l.858-23.53-1.605-21.998-1.604-21.998-5.252-35.996-5.252-35.997-2.227-6c-1.225-3.299-3.845-8.998-5.824-12.665-1.978-3.666-4.687-9.665-6.02-13.332-2.902-7.985-9.245-18.642-20.677-34.742l-8.465-11.92-11.37-11.08c-16.266-15.852-38.243-30.652-58.972-39.713-4.616-2.018-9.743-4.868-11.393-6.334l-3-2.665V798.77l10.125-27.2c5.568-14.96 10.91-29.6 11.872-32.533.96-2.933 6.821-19.131 13.023-35.996 18.334-49.853 34.547-101.385 50.964-161.984 6.298-23.25 12.1-59.46 13.52-84.38l.85-14.944-1.61-13.999-1.612-13.998-3.444-7.722-3.444-7.721-3.697-3.111-3.697-3.111-4.942-.928-4.942-.927-8.48 4.175-8.48 4.175-7.958 10.205-7.958 10.206-13.223 26.043c-7.273 14.324-13.647 27.543-14.163 29.377-.517 1.833-5.36 13.232-10.762 25.33-5.402 12.1-12.775 29.498-16.386 38.663-14.56 36.966-25.814 64.998-28.501 70.993l-2.839 6.333h-3.544v-3.212c0-1.766 2.661-16.615 5.914-32.996 10.043-50.589 13.897-72.538 18.809-107.111l4.735-33.33 1.512-22.168 1.511-22.168-1.476-16.495-1.477-16.495-3.402-10.721-3.402-10.72-3.88-3.719-3.881-3.718-5.296-.71-5.296-.71-4.887 2.319-4.887 2.319-5.205 5.914-5.206 5.914-5.932 11.582c-6.11 11.93-20.486 46.634-24.86 60.015-1.36 4.16-4.08 11.761-6.044 16.894-4.151 10.85-9.42 27.345-20.011 62.66-15.216 50.734-17.807 57.995-20.697 57.995h-1.3v-7.016c0-3.86 1.296-22.008 2.88-40.33l2.878-33.313.074-41.329.074-41.33-2.375-8.665c-1.306-4.766-3.857-10.936-5.668-13.71l-3.292-5.044-4.47-2.132-4.469-2.13-4.676.876-4.677.878-5.376 5.832c-6.22 6.748-9.39 12.59-15.706 28.945-6.178 15.995-23.83 83.355-29.823 113.806-1.588 8.066-6.125 29.364-10.083 47.329s-8.734 41.662-10.613 52.661c-4.171 24.424-11.133 55.047-12.74 56.04l-1.182.73-.66-3.054c-.363-1.68-.928-40.85-1.256-87.046l-.596-83.992-1.444-15.332c-3.493-37.077-8.773-52.079-20.475-58.166l-3.688-1.919-5.19 1.398-5.188 1.397-4.132 4.705c-11.277 12.845-21.145 43.133-29.944 91.915-2.513 13.932-5.539 32.53-6.724 41.33-7.631 56.652-12.858 91.715-13.968 93.698l-1.283 2.292-1.274-3.35c-.7-1.843-2.871-17.441-4.824-34.664-7.334-64.676-14.765-93.55-28.033-108.927l-4.85-5.622-4.436-1.224-4.434-1.225-3.735.714-3.734.714-5.888 5.888-5.887 5.887-3.962 8.737-3.96 8.736-4.541 18.341c-7.005 28.297-10.206 57.076-12.58 113.08-1.251 29.5-2.026 36.244-4.167 36.244-1.783 0-4.936-8.446-8.685-23.27-4.882-19.301-14.73-48.145-19.487-57.08l-4.095-7.69-5.138-4.642-5.138-4.642h-11.071l-5.066 5.326-5.066 5.325-3.284 10.395c-1.806 5.717-3.933 15.063-4.726 20.768l-1.443 10.374-.018 38.9-.017 38.9 2.115 24.664c1.163 13.565 3.871 40.862 6.018 60.66 2.146 19.798 3.902 38.847 3.901 42.33v6.332h-3.636l-3.384-7.666c-1.86-4.216-6.5-14.865-10.308-23.664-10.668-24.65-18.148-39.284-24.283-47.51l-5.605-7.514-6.083-4.152-6.084-4.151h-3.552c-9.078 0-14.3 5.326-17.817 18.168l-2.144 7.83.096 19.997c.115 24.112 1.818 41.13 6.335 63.328 4.93 24.225 16.677 66.948 28.042 101.99l6.054 18.664.682 7.418.683 7.418-2.107 4.073c-1.158 2.24-4.893 7.302-8.3 11.247-3.407 3.946-12.341 16.473-19.855 27.839l-13.66 20.664-8.737 17.332c-4.805 9.532-12.658 27.266-17.45 39.409l-8.714 22.077-4.656 18.585c-2.56 10.223-5.963 26.985-7.56 37.25l-2.904 18.666-.71 23.997-.71 23.998 1.62 21.331c2.885 38.004 12.025 83.636 21.954 109.611 11.405 29.833 27.315 60.274 37.724 72.175 16.324 18.666 30.85 30.475 47.77 38.838l13.363 6.605 10.634 2.611 10.634 2.611 15.471.097 15.47.097zm125.18-262.652c-2.519-4.075-7.98-23.163-11.634-40.66l-4.176-19.998-.094-62.66-.094-62.661-3.81-15.117-3.81-15.117-3.994-4.548-3.993-4.548h5.145l2.8 3 2.801 3 3.468 13.717 3.467 13.717 1.321 13.614 1.321 13.613-1.518 27.662-1.518 27.662.63 25 .63 25 2.197 8.998c1.209 4.95 3.13 13.05 4.268 17.999 1.14 4.95 3.55 12.728 5.357 17.286 1.808 4.558 3.65 10.108 4.095 12.332l.81 4.045h-1.422c-.782 0-1.793-.601-2.247-1.336zm22.508-5.33c3.1-22.01 4.767-39.794 5.593-59.657l.948-22.799-1.648-17.1c-.906-9.404-2.894-26.698-4.418-38.43l-2.77-21.332.325-20.58.326-20.579 3.784-14.985 3.785-14.984 5.542-9.491 5.543-9.49 5.573-4.066c9.111-6.648 18.754-10.925 47.568-21.101 15.032-5.309 34.23-12.557 42.663-16.108 8.432-3.55 27.03-11.105 41.33-16.79l25.997-10.335 9.332-.071 9.332-.07v3.878l-24.664 8.406c-13.565 4.623-37.44 13.545-53.057 19.826-15.616 6.28-32.414 12.794-37.33 14.473-17.733 6.06-51 19.784-56.668 23.378-11.904 7.55-19.073 19.24-24.304 39.632l-3.49 13.604.538 19.06.537 19.06 2.789 19.331c1.534 10.632 3.458 26.91 4.276 36.172l1.487 16.84-.802 21.823-.801 21.822-2.716 21.998-2.716 21.998-1.364 1.333-1.365 1.333zm-95.454-84.992c-1.12-1.283-2.713-3.643-3.54-5.245l-1.505-2.912.02-13.753.02-13.753 1.974-8.374c2.252-9.553 5.832-17.202 9.678-20.68l2.643-2.39 4.62-.75 4.618-.75 4.084 4.955c2.246 2.725 5.341 8.24 6.878 12.257l2.795 7.304v16.945l-3.205 3.726-3.205 3.726.72-8.981.722-8.982-2.252-5.897c-2.66-6.964-4.9-9.107-9.519-9.107h-3.399l-3.23 3.034c-1.776 1.668-4.289 5.793-5.584 9.165l-2.355 6.132-.012 10.71-.011 10.708 2.503 5.551 2.503 5.551-.795 2.072c-1.037 2.702-2.652 2.62-5.166-.262zm136.275-27.076v-1.412l1.333.824c.733.454 1.333 1.089 1.333 1.412 0 .324-.6.588-1.333.588s-1.333-.635-1.333-1.412zm-9.89-16.33-3.83-7.743.75-15.226.749-15.225 3.353-7.029c3.79-7.945 9.882-15.41 12.868-15.77 1.1-.132 3.062-.169 4.361-.082l2.362.158 1.466 3.666c.806 2.017 3.267 7.774 5.468 12.794l4.002 9.127-.844 6.15c-.463 3.383-1.4 6.71-2.082 7.39l-1.24 1.24.074-5.299c.109-7.889-1.52-14.038-4.611-17.403l-2.755-3h-5.737l-2.835 3.018c-4.173 4.442-6.98 12.104-7.846 21.412l-.766 8.233 1.292 4.667 1.292 4.666-.83 6-.832 5.999zm-108.765-94.015c0-1.76 5.72-6.507 9.063-7.521l3.064-.93 1.935 1.606c1.065.884 1.936 2.658 1.936 3.943v2.337l-4.166.833c-5.856 1.171-11.832 1.036-11.832-.268z" style="fill:#5f0406" transform="matrix(.02344 0 0 .02344 -6.039 -6.089)"/><path d="m684.913 1574.218-11.998-1.023-12-4.269c-20.344-7.237-34.18-15.565-51.578-31.045l-11.112-9.886-10.282-14.013c-15.666-21.35-29.884-46.66-37.824-67.332-20.638-53.73-29.3-97.472-33.876-171.094l-1.456-23.427 1.444-16.77c.795-9.223 2.92-25.378 4.725-35.9 1.804-10.522 4.245-25.093 5.425-32.38 6.337-39.145 31.266-99.886 60.956-148.52l10.042-16.448 1.607-6.698 1.607-6.699-.846-8.252c-.465-4.538-3.845-20.52-7.51-35.513-7.451-30.475-13.42-62.296-16.74-89.256l-2.218-17.999.704-29.997.704-29.997 3.318-12.79c4.141-15.962 7.478-22.567 15.372-30.427l6.211-6.185 5.488-1.63c7.476-2.22 13.838-2.047 23.963.65l8.557 2.28 2.241-2.24 2.241-2.242-.249-21.703-.249-21.703 2.038-24.438c1.121-13.441 3.496-32.94 5.277-43.33l3.239-18.89 3.399-8.666 3.398-8.666 4.992-6.547c2.746-3.6 7.12-8.256 9.72-10.345l4.728-3.8 7.544-1.582 7.543-1.582 7.206 2.271c3.964 1.25 9.84 4.057 13.06 6.238 3.219 2.181 6.881 3.977 8.139 3.99l2.286.025 1.202-2.333c.661-1.284 3.45-12.533 6.196-24.998l4.995-22.664 5.07-14.415c5.723-16.27 11.223-26.192 19.934-35.957l5.972-6.696 6.693-3.117 6.693-3.117h14.665l6.922 3.223c10.463 4.872 14.472 8.358 21.8 18.959 7.482 10.823 8.053 11.368 10.38 9.93l1.644-1.016 6.56-26.56c6.646-26.911 10.913-39.536 18.893-55.905l4.414-9.051 5.719-6.361 5.72-6.362 6.898-3.437 6.898-3.438h13.658l7.133 2.119 7.133 2.118 7.453 7.547 7.453 7.548 3.552 7.374c1.954 4.056 5.214 13.568 7.244 21.138l3.69 13.764 1.879.72 1.878.721 1.026-1.66c.564-.913 3.88-12.25 7.367-25.192 7.576-28.115 17.774-56.227 24.789-68.333l5.102-8.805 7.96-7.37 7.96-7.369 6.33-2.157c3.483-1.186 8.475-2.144 11.094-2.128l4.762.03 5.674 2.575c8.456 3.838 14.746 9.112 19.841 16.634l4.559 6.73 4.702 14.998 4.702 14.999h1.762c2.803 0 3.99-2.132 13.366-23.998 4.873-11.366 11.302-24.793 14.287-29.84l5.427-9.174 8.874-9.034 8.875-9.034 7.86-2.285 7.86-2.285 7.159.739 7.159.738 6.037 2.923c12.387 5.997 19.237 16.376 25.63 38.84l4.055 14.253 1.447 13.078c.796 7.194 1.88 19.672 2.41 27.73l.965 14.652 2.142.408 2.143.408 9.19-14.87 9.189-14.87 7.742-8.476 7.741-8.476 8.835-4.35 8.835-4.349 8.985-.507 8.985-.508 7.262 3.325c3.994 1.828 9.627 5.46 12.517 8.072l5.256 4.748 3.488 6.408c4.78 8.783 8.666 23.468 11.065 41.81l2.016 15.412-1.247 27.917-1.246 27.917-6.173 38.663c-10.432 65.342-18.88 97.77-48.85 187.515l-19.88 59.528v8.618l2.686 4.344 2.684 4.343 7.648 5.741c13.779 10.343 26.126 21.41 37.432 33.55l11.12 11.94 8.478 12.94c4.663 7.118 11.515 19.005 15.225 26.417l6.746 13.475 4.696 14.442c8.897 27.368 14.065 54.794 18.168 96.434l1.773 17.998v65.327l-1.718 26.664-1.719 26.664-3.39 21.998c-4.177 27.1-10.432 53.478-18.494 77.993l-6.138 18.664-8.683 17.999-8.684 17.998-9.785 14.665-9.785 14.665-13.404 14.83-13.404 14.83-19.725 16.571c-10.848 9.115-25.525 20.852-32.614 26.083-33.271 24.55-90.299 56.115-139.095 76.99a4349.267 4349.267 0 0 0-29.998 13.015c-9.165 4.021-25.664 10.748-36.663 14.948-95.548 36.485-112.942 42.506-178.837 61.907-45.922 13.52-47.833 14.003-71.553 18.077l-19.747 3.39-12.917-.19c-7.104-.104-18.316-.65-24.916-1.213zm53.177-38.602c13.584-2.206 26.171-4.57 27.971-5.255 1.8-.684 8.576-2.5 15.057-4.033 25.898-6.128 85.19-23.495 101.11-29.616 5.866-2.255 19.064-6.936 29.33-10.403 10.266-3.467 24.064-8.439 30.664-11.05 6.599-2.611 19.798-7.552 29.33-10.979 16.795-6.039 27.598-10.338 38.663-15.386 2.933-1.338 13.132-5.712 22.664-9.72 66.64-28.017 131.693-63.224 166.859-90.303 16.906-13.018 44.02-37.11 57.095-50.734l12.986-13.53 7.993-12.143c23.74-36.07 39.995-87.28 46.597-146.798l1.775-15.998-.043-37.996-.043-37.997-1.678-14.665c-.924-8.066-2.546-19.765-3.606-25.997-1.06-6.233-3.066-19.732-4.458-29.997l-2.53-18.665-5.638-12c-3.1-6.598-7.056-15.529-8.79-19.844l-3.154-7.845-9.984-14.993c-12.324-18.504-18.21-25.441-32.95-38.824-17.856-16.212-25.718-21.441-52.077-34.64l-11.628-5.821-1.972-3.01-1.972-3.01 1.094-4.666c.602-2.566 2.299-7.966 3.77-11.999 1.472-4.033 6.609-18.131 11.416-31.33a8133.9 8133.9 0 0 1 16.936-45.995c13.384-35.928 36.038-105.365 43.28-132.654 1.945-7.333 4.986-17.832 6.758-23.331 4.028-12.5 8.946-35.271 13.48-62.41l3.493-20.915.034-21.998.034-21.998-2.326-10.6c-1.28-5.829-3.423-12.728-4.762-15.331-4.574-8.888-12.946-14.733-21.098-14.73h-3.58l-7.999 3.792-8 3.79-7.772 8.867c-7.677 8.758-14.777 19.929-21.743 34.21-1.967 4.034-5.472 10.333-7.789 14-4.482 7.092-6.469 11.91-9.382 22.755-.998 3.717-5.983 15.716-11.076 26.665-5.094 10.948-9.706 21.406-10.25 23.24-3.811 12.857-22.92 55.994-24.803 55.994h-1.108l.617-3.667c.34-2.016 1.879-11.465 3.42-20.998 1.54-9.532 3.957-23.63 5.371-31.33 1.414-7.7 5.051-30.797 8.084-51.328l5.514-37.33.595-29.997.596-29.997-2.1-12.147c-3.119-18.027-8.29-28.666-16.596-34.144l-3.568-2.353-4.579-.01-4.578-.008-5.645 2.732-5.645 2.733-6.26 7.6-6.261 7.6-6.338 12.665c-15.414 30.802-26.623 60.45-39.568 104.656-5.35 18.268-17.274 56.482-19.235 61.639l-1.314 3.456-1.327-1.328-1.327-1.327 1.398-21.221c.77-11.671 1.93-33.22 2.578-47.885l1.179-26.664-1.103-20.686-1.103-20.685-1.628-6.645c-3.068-12.524-10.602-22.782-18.594-25.32l-2.87-.91-4.399.825-4.399.826-5.954 5.24-5.954 5.242-4.737 9.059c-7.329 14.017-13.618 31.526-19.615 54.606-3.018 11.612-7.234 26.812-9.37 33.778-6.218 20.274-10.349 38.53-11.28 49.84-.475 5.78-2.347 17.479-4.16 25.997-1.813 8.518-6.259 30.044-9.88 47.835-3.62 17.791-7.32 34.812-8.223 37.824l-1.64 5.477-.98-2.495-.98-2.494-.137-42.662-.137-42.663-1.905-35.996-1.905-35.997-2.004-12.9c-1.103-7.095-3.27-16.694-4.817-21.331l-2.812-8.431-5.502-5.656-5.502-5.656-4.312-.81-4.311-.808-4.503 1.486-4.503 1.486-4.761 4.979c-2.62 2.738-6.382 7.597-8.362 10.796-3.992 6.45-11.91 27.422-14.656 38.818-.975 4.048-3.288 13.09-5.14 20.094-5.288 20.01-5.925 24.158-12.981 84.59-2.996 25.656-6.077 43.343-7.86 45.126l-1.208 1.208-1.446-5.371c-.796-2.955-2.04-10.08-2.766-15.835-4.783-37.952-11.642-68.103-18.884-83.023l-4.159-8.565-6.876-7.1-6.877-7.1h-4.967c-2.731 0-6.897.812-9.256 1.804l-4.29 1.803-5.813 6.325-5.812 6.325-4.35 9.537c-2.392 5.245-5.325 13.736-6.517 18.869-1.192 5.133-3.097 12.632-4.232 16.665-3.46 12.291-5.8 33.582-7.913 71.993-1.11 20.165-2.367 39.285-2.794 42.49l-.777 5.827-1.097-1.16c-1.175-1.245-7.368-18.448-12.896-35.825-1.867-5.866-5.78-15.582-8.697-21.59l-5.303-10.925-5.866-5.407-5.866-5.407h-13.3l-4.797 4.213-4.799 4.213-3.205 6.325c-4.574 9.028-8.243 24.756-10.087 43.243l-1.595 15.999.9 37.33c.496 20.53 1.492 41.529 2.215 46.662 1.54 10.937 4.406 35.81 7.4 64.22l2.13 20.223-1.318 2.355-1.318 2.355-4.912-9.754c-2.702-5.365-7.217-15.067-10.033-21.56-9.595-22.123-21.652-38.562-32.248-43.967l-4.979-2.54H606.57l-5.661 5.666-5.661 5.666-2.351 10.577-2.35 10.578.776 28.752.777 28.752 2.008 12.665c3.853 24.314 20.131 85.14 28.785 107.562 6.133 15.89 9.36 27.641 9.36 34.086v4.61l-3 4.117c-1.65 2.264-8.618 11.502-15.485 20.528-6.866 9.027-12.983 17.715-13.592 19.308-.61 1.593-3.168 5.792-5.685 9.332-5.622 7.907-20.707 37.545-26.008 51.1-2.151 5.5-6.115 15.364-8.808 21.921-2.692 6.558-7.503 21.556-10.69 33.33l-5.795 21.408-3.081 19.331-3.082 19.332-.05 33.996-.049 33.997 1.708 15.998c.94 8.8 2.329 19.598 3.088 23.998 1.637 9.494 12.387 53.149 15.43 62.66 3.786 11.841 21.738 50.248 28.008 59.925 13.743 21.21 19.55 27.997 36.668 42.852l12.908 11.203 12.422 5.816c20.387 9.544 33.052 12.532 53.993 12.738l12.24.12zm45.86-362.954-1.713-3 .035-13.332.035-13.332 3.053-8.939 3.054-8.939 4.624-4.06c2.543-2.233 5.53-4.06 6.638-4.06 3.068 0 8.419 6.01 11.447 12.858l2.716 6.14-.087 7.34c-.049 4.037-.41 7.662-.803 8.055-.393.393-.728-1.935-.744-5.173l-.03-5.889-2.581-5.688-2.582-5.689-3.055-1.135c-5.52-2.052-10.773 1.519-14.485 9.846l-2.378 5.333-.84 8-.841 7.998 1.248 6c.686 3.3 1.686 7.05 2.22 8.332l.974 2.333H785.664zm128.383-43.46-1.442-2.694v-19.689l2.022-6.808 2.022-6.808 3.942-3.318 3.943-3.317 2.701.706c3.513.92 3.43 1.288-1.15 5.143l-3.854 3.242-2.373 5.671-2.373 5.671-.242 11.69c-.259 12.552-.927 14.75-3.196 10.51z" style="fill:#0a0103" transform="matrix(.02344 0 0 .02344 -6.039 -6.089)"/></svg>